<?xml version="1.0" encoding="UTF-8"?>
<svg xmlns="http://www.w3.org/2000/svg" xmlns:xlink="http://www.w3.org/1999/xlink" width="16px" height="16px" viewBox="0 0 16 16" version="1.1">
<g id="surface1">
<rect x="0" y="0" width="16" height="16" style="fill:rgb(100%,100%,100%);fill-opacity:1;stroke:none;"/>
<path style=" stroke:none;fill-rule:nonzero;fill:rgb(0%,0%,0%);fill-opacity:1;" d="M 7.753906 0.324219 C 8.113281 0.304688 8.480469 0.332031 8.835938 0.378906 C 9.800781 0.515625 10.738281 0.855469 11.5625 1.378906 C 13.1875 2.402344 14.355469 4.085938 14.75 5.96875 C 14.941406 6.882812 14.945312 7.847656 14.761719 8.765625 C 14.691406 9.101562 14.613281 9.4375 14.507812 9.761719 C 14.441406 9.957031 14.378906 10.15625 14.296875 10.34375 C 14.289062 10.367188 14.257812 10.414062 14.257812 10.433594 C 14.253906 10.460938 14.273438 10.519531 14.28125 10.546875 C 14.289062 10.585938 14.316406 10.613281 14.34375 10.640625 C 14.375 10.679688 14.40625 10.71875 14.433594 10.761719 C 14.519531 10.886719 14.59375 11.019531 14.65625 11.160156 C 14.957031 11.859375 14.9375 12.675781 14.660156 13.378906 C 14.453125 13.894531 14.058594 14.394531 13.554688 14.652344 C 13.464844 14.699219 13.367188 14.742188 13.273438 14.773438 C 13.238281 14.785156 13.191406 14.785156 13.160156 14.800781 C 13.144531 14.804688 13.03125 14.988281 13.007812 15.019531 C 12.820312 15.269531 12.566406 15.507812 12.277344 15.632812 C 12.207031 15.660156 12.085938 15.71875 12.011719 15.71875 C 11.960938 15.714844 11.894531 15.683594 11.84375 15.667969 L 11.4375 15.519531 L 10.824219 15.3125 C 10.738281 15.28125 10.648438 15.253906 10.5625 15.21875 C 10.375 15.140625 10.226562 14.96875 10.148438 14.785156 C 10.042969 14.523438 10.03125 14.222656 10.03125 13.941406 C 10.03125 13.546875 10.070312 13.15625 10.132812 12.765625 C 10.253906 12.003906 10.457031 11.242188 10.757812 10.53125 C 10.851562 10.3125 10.953125 10.097656 11.070312 9.890625 C 11.246094 9.578125 11.46875 9.234375 11.8125 9.097656 C 12.03125 9.011719 12.273438 9.039062 12.484375 9.125 C 12.605469 9.171875 12.71875 9.238281 12.839844 9.289062 L 13.367188 9.507812 L 13.480469 9.191406 L 13.605469 8.742188 C 13.605469 8.730469 13.632812 8.652344 13.628906 8.644531 C 13.625 8.632812 13.519531 8.570312 13.5 8.554688 C 13.472656 8.53125 13.445312 8.5 13.429688 8.464844 C 13.390625 8.375 13.394531 8.277344 13.429688 8.1875 C 13.480469 8.074219 13.570312 8.019531 13.679688 7.972656 L 13.683594 7.832031 C 13.699219 7.550781 13.683594 7.257812 13.648438 6.976562 C 13.511719 5.835938 13.019531 4.730469 12.25 3.878906 C 11.453125 3 10.414062 2.378906 9.253906 2.113281 C 8.921875 2.035156 8.578125 1.996094 8.238281 1.976562 L 8.011719 1.972656 C 6.804688 1.972656 5.628906 2.363281 4.652344 3.070312 C 4.382812 3.269531 4.128906 3.492188 3.890625 3.730469 C 3.738281 3.882812 3.601562 4.050781 3.46875 4.226562 C 2.871094 5.015625 2.503906 5.949219 2.363281 6.929688 C 2.3125 7.277344 2.304688 7.640625 2.304688 7.992188 C 2.347656 7.992188 2.382812 8 2.421875 8.011719 C 2.484375 8.03125 2.554688 8.078125 2.582031 8.136719 L 2.589844 8.148438 C 2.621094 8.21875 2.636719 8.289062 2.621094 8.367188 C 2.589844 8.5 2.472656 8.574219 2.363281 8.644531 L 2.597656 9.511719 L 2.984375 9.382812 C 3.023438 9.367188 3.074219 9.363281 3.113281 9.34375 C 3.160156 9.320312 3.203125 9.269531 3.246094 9.238281 C 3.390625 9.128906 3.570312 9.050781 3.753906 9.03125 C 3.996094 9.003906 4.222656 9.070312 4.414062 9.226562 C 4.703125 9.464844 4.886719 9.804688 5.046875 10.132812 C 5.519531 11.097656 5.820312 12.179688 5.917969 13.25 L 5.949219 13.8125 C 5.953125 13.96875 5.949219 14.125 5.9375 14.28125 C 5.917969 14.546875 5.871094 14.800781 5.695312 15.011719 C 5.625 15.09375 5.546875 15.15625 5.453125 15.203125 C 5.351562 15.253906 5.234375 15.28125 5.128906 15.316406 L 4.433594 15.550781 L 4.1875 15.636719 C 4.125 15.660156 4.054688 15.683594 3.988281 15.691406 C 3.886719 15.695312 3.796875 15.664062 3.707031 15.625 C 3.378906 15.480469 3.132812 15.21875 2.921875 14.9375 L 2.816406 14.785156 C 2.8125 14.78125 2.796875 14.753906 2.792969 14.75 C 2.777344 14.746094 2.742188 14.746094 2.726562 14.742188 C 2.6875 14.738281 2.644531 14.730469 2.609375 14.71875 C 2.394531 14.644531 2.1875 14.503906 2.023438 14.355469 C 1.46875 13.847656 1.167969 13.136719 1.132812 12.390625 C 1.109375 11.808594 1.261719 11.179688 1.621094 10.710938 C 1.652344 10.671875 1.6875 10.636719 1.722656 10.601562 C 1.75 10.570312 1.765625 10.453125 1.753906 10.414062 C 1.738281 10.351562 1.699219 10.289062 1.675781 10.226562 L 1.535156 9.855469 C 1.296875 9.167969 1.140625 8.472656 1.105469 7.742188 C 1.011719 5.863281 1.703125 3.996094 2.964844 2.605469 C 3.945312 1.527344 5.238281 0.765625 6.664062 0.457031 C 7.019531 0.382812 7.390625 0.339844 7.753906 0.324219 Z M 7.753906 0.324219 "/>
<path style=" stroke:none;fill-rule:nonzero;fill:rgb(100%,100%,100%);fill-opacity:1;" d="M 2.203125 8.765625 C 2.234375 8.792969 2.246094 8.917969 2.257812 8.960938 L 2.320312 9.199219 L 2.4375 9.570312 L 2.171875 9.664062 L 2.15625 9.660156 C 2.113281 9.558594 2.082031 9.445312 2.050781 9.339844 C 2.011719 9.214844 1.964844 9.085938 1.9375 8.953125 C 1.976562 8.933594 2.011719 8.902344 2.042969 8.878906 Z M 2.203125 8.765625 "/>
<path style=" stroke:none;fill-rule:nonzero;fill:rgb(100%,100%,100%);fill-opacity:1;" d="M 13.773438 8.757812 L 14.035156 8.964844 C 14.011719 9.027344 14 9.09375 13.984375 9.15625 C 13.9375 9.328125 13.902344 9.503906 13.835938 9.667969 L 13.816406 9.671875 L 13.53125 9.5625 Z M 13.773438 8.757812 "/>
<path style=" stroke:none;fill-rule:nonzero;fill:rgb(100%,100%,100%);fill-opacity:1;" d="M 2.269531 8.164062 C 2.296875 8.160156 2.328125 8.160156 2.355469 8.167969 C 2.386719 8.171875 2.425781 8.203125 2.441406 8.230469 C 2.460938 8.265625 2.464844 8.316406 2.445312 8.355469 C 2.425781 8.394531 2.386719 8.417969 2.355469 8.441406 L 2.171875 8.574219 L 1.875 8.785156 C 1.839844 8.8125 1.777344 8.839844 1.761719 8.882812 C 1.730469 8.953125 1.910156 9.46875 1.941406 9.570312 L 2.003906 9.765625 C 2.003906 9.773438 2.015625 9.800781 2.011719 9.808594 C 2.011719 9.824219 1.984375 9.855469 1.976562 9.871094 C 1.917969 9.972656 1.878906 10.074219 1.851562 10.183594 C 1.808594 10.101562 1.777344 10.011719 1.746094 9.929688 C 1.597656 9.550781 1.503906 9.164062 1.398438 8.773438 Z M 2.269531 8.164062 "/>
<path style=" stroke:none;fill-rule:nonzero;fill:rgb(100%,100%,100%);fill-opacity:1;" d="M 13.75 8.132812 C 13.8125 8.164062 13.871094 8.222656 13.925781 8.265625 L 14.308594 8.5625 C 14.390625 8.628906 14.476562 8.714844 14.570312 8.765625 L 14.578125 8.769531 C 14.46875 9.246094 14.359375 9.722656 14.175781 10.175781 L 14.167969 10.179688 C 14.136719 10.089844 14.101562 10.003906 14.054688 9.921875 L 14.003906 9.828125 C 14 9.824219 13.984375 9.800781 13.984375 9.796875 C 13.980469 9.769531 14.011719 9.703125 14.019531 9.675781 L 14.175781 9.109375 C 14.191406 9.046875 14.214844 8.976562 14.214844 8.914062 C 14.214844 8.902344 14.210938 8.886719 14.203125 8.878906 C 14.171875 8.839844 14.101562 8.796875 14.058594 8.765625 L 13.765625 8.535156 C 13.703125 8.484375 13.640625 8.441406 13.582031 8.386719 C 13.574219 8.351562 13.570312 8.296875 13.582031 8.261719 C 13.609375 8.195312 13.6875 8.15625 13.75 8.132812 Z M 13.75 8.132812 "/>
<path style=" stroke:none;fill-rule:nonzero;fill:rgb(100%,100%,100%);fill-opacity:1;" d="M 4.277344 10.300781 C 4.386719 10.449219 4.46875 10.613281 4.550781 10.777344 C 4.773438 11.234375 4.929688 11.71875 5.050781 12.214844 C 5.1875 12.769531 5.269531 13.332031 5.273438 13.90625 C 4.878906 13.125 4.613281 12.300781 4.4375 11.445312 C 4.359375 11.066406 4.296875 10.6875 4.277344 10.300781 Z M 4.277344 10.300781 "/>
<path style=" stroke:none;fill-rule:nonzero;fill:rgb(100%,100%,100%);fill-opacity:1;" d="M 11.746094 10.253906 C 11.742188 10.542969 11.6875 10.832031 11.632812 11.117188 C 11.488281 11.871094 11.269531 12.617188 10.972656 13.324219 L 10.714844 13.878906 C 10.707031 13.820312 10.714844 13.757812 10.71875 13.699219 L 10.746094 13.363281 C 10.800781 12.742188 10.933594 12.128906 11.125 11.539062 C 11.207031 11.292969 11.292969 11.046875 11.410156 10.8125 C 11.507812 10.613281 11.617188 10.433594 11.746094 10.253906 Z M 11.746094 10.253906 "/>
<path style=" stroke:none;fill-rule:nonzero;fill:rgb(100%,100%,100%);fill-opacity:1;" d="M 1.71875 10.867188 C 1.710938 11.027344 1.707031 11.191406 1.714844 11.355469 C 1.738281 11.902344 1.847656 12.445312 2.007812 12.96875 C 2.117188 13.324219 2.242188 13.671875 2.398438 14.011719 L 2.675781 14.5625 C 2.585938 14.535156 2.5 14.484375 2.417969 14.4375 L 2.386719 14.417969 C 1.871094 14.089844 1.5 13.5 1.371094 12.90625 C 1.21875 12.195312 1.320312 11.484375 1.71875 10.867188 Z M 1.71875 10.867188 "/>
<path style=" stroke:none;fill-rule:nonzero;fill:rgb(100%,100%,100%);fill-opacity:1;" d="M 14.292969 10.84375 L 14.304688 10.867188 C 14.378906 10.984375 14.457031 11.113281 14.507812 11.242188 C 14.726562 11.761719 14.757812 12.332031 14.636719 12.875 C 14.492188 13.519531 14.140625 14.085938 13.582031 14.441406 C 13.488281 14.5 13.394531 14.550781 13.289062 14.589844 L 13.566406 14.066406 L 13.734375 13.660156 C 13.945312 13.132812 14.101562 12.601562 14.195312 12.042969 C 14.261719 11.640625 14.300781 11.253906 14.292969 10.84375 Z M 14.292969 10.84375 "/>
<path style=" stroke:none;fill-rule:nonzero;fill:rgb(100%,100%,100%);fill-opacity:1;" d="M 11.484375 9.578125 C 11.519531 9.578125 11.5625 9.578125 11.59375 9.597656 C 11.679688 9.648438 11.714844 9.726562 11.738281 9.816406 C 11.753906 9.882812 11.75 9.949219 11.75 10.015625 L 11.671875 10.089844 C 11.546875 10.21875 11.457031 10.371094 11.367188 10.527344 C 11.183594 10.859375 11.046875 11.214844 10.933594 11.578125 C 10.753906 12.152344 10.632812 12.746094 10.570312 13.34375 C 10.550781 13.519531 10.535156 13.699219 10.53125 13.875 L 10.53125 14.097656 C 10.53125 14.125 10.535156 14.164062 10.53125 14.191406 C 10.523438 14.238281 10.46875 14.285156 10.4375 14.3125 C 10.402344 14.339844 10.367188 14.359375 10.320312 14.359375 C 10.300781 14.363281 10.234375 14.363281 10.222656 14.351562 L 10.210938 14.207031 C 10.203125 13.773438 10.226562 13.34375 10.28125 12.914062 C 10.320312 12.632812 10.378906 12.347656 10.445312 12.070312 C 10.582031 11.472656 10.773438 10.882812 11.035156 10.328125 C 11.128906 10.128906 11.222656 9.9375 11.351562 9.757812 C 11.390625 9.695312 11.433594 9.632812 11.484375 9.578125 Z M 11.484375 9.578125 "/>
<path style=" stroke:none;fill-rule:nonzero;fill:rgb(100%,100%,100%);fill-opacity:1;" d="M 4.449219 9.578125 L 4.496094 9.578125 C 4.507812 9.578125 4.515625 9.582031 4.523438 9.589844 C 4.707031 9.808594 4.84375 10.09375 4.964844 10.347656 C 5.277344 11.011719 5.492188 11.71875 5.628906 12.4375 C 5.75 13.078125 5.808594 13.714844 5.765625 14.367188 C 5.710938 14.363281 5.664062 14.355469 5.613281 14.339844 L 5.609375 14.339844 L 5.566406 14.316406 C 5.53125 14.292969 5.476562 14.234375 5.460938 14.191406 C 5.457031 14.179688 5.460938 14.148438 5.460938 14.132812 L 5.460938 13.949219 C 5.449219 13.511719 5.40625 13.0625 5.320312 12.632812 C 5.179688 11.929688 4.976562 11.222656 4.644531 10.582031 C 4.546875 10.394531 4.433594 10.179688 4.253906 10.058594 C 4.242188 9.96875 4.257812 9.851562 4.289062 9.765625 C 4.320312 9.667969 4.359375 9.625 4.449219 9.578125 Z M 4.449219 9.578125 "/>
<path style=" stroke:none;fill-rule:nonzero;fill:rgb(100%,100%,100%);fill-opacity:1;" d="M 2.984375 9.5625 L 3 9.566406 C 2.964844 9.667969 2.933594 9.765625 2.917969 9.871094 C 2.867188 10.15625 2.875 10.457031 2.898438 10.746094 C 2.949219 11.371094 3.078125 11.992188 3.261719 12.59375 C 3.464844 13.253906 3.695312 13.910156 4.054688 14.503906 C 4.238281 14.804688 4.433594 15.089844 4.753906 15.261719 L 4.71875 15.277344 L 4.246094 15.441406 C 4.164062 15.472656 4.050781 15.527344 3.964844 15.53125 C 3.917969 15.535156 3.859375 15.507812 3.816406 15.488281 L 3.707031 15.433594 C 3.554688 15.359375 3.425781 15.25 3.308594 15.128906 C 2.984375 14.804688 2.757812 14.382812 2.566406 13.972656 C 2.445312 13.710938 2.335938 13.445312 2.246094 13.171875 C 2.03125 12.503906 1.878906 11.816406 1.878906 11.109375 C 1.882812 10.730469 1.921875 10.347656 2.097656 10.011719 C 2.125 9.960938 2.160156 9.875 2.203125 9.835938 C 2.226562 9.808594 2.894531 9.589844 2.984375 9.5625 Z M 2.984375 9.5625 "/>
<path style=" stroke:none;fill-rule:nonzero;fill:rgb(100%,100%,100%);fill-opacity:1;" d="M 13.007812 9.546875 L 13.773438 9.828125 C 13.8125 9.84375 13.921875 10.019531 13.945312 10.0625 C 14.136719 10.441406 14.140625 10.878906 14.117188 11.292969 C 14.082031 11.910156 13.945312 12.523438 13.753906 13.109375 C 13.601562 13.582031 13.402344 14.050781 13.152344 14.480469 C 13.015625 14.722656 12.867188 14.957031 12.671875 15.152344 C 12.535156 15.285156 12.398438 15.382812 12.230469 15.46875 C 12.175781 15.496094 12.074219 15.546875 12.011719 15.546875 C 11.984375 15.546875 11.914062 15.507812 11.882812 15.5 L 11.253906 15.28125 C 11.527344 15.117188 11.71875 14.859375 11.886719 14.59375 C 11.976562 14.449219 12.0625 14.304688 12.136719 14.152344 L 12.332031 13.738281 C 12.519531 13.308594 12.664062 12.851562 12.789062 12.402344 C 12.953125 11.785156 13.074219 11.152344 13.097656 10.511719 C 13.105469 10.292969 13.101562 10.078125 13.070312 9.859375 C 13.054688 9.753906 13.039062 9.648438 13.007812 9.546875 Z M 13.007812 9.546875 "/>
<path style=" stroke:none;fill-rule:nonzero;fill:rgb(100%,100%,100%);fill-opacity:1;" d="M 12.050781 9.214844 C 12.152344 9.207031 12.253906 9.222656 12.351562 9.253906 C 12.445312 9.285156 12.535156 9.328125 12.621094 9.375 C 12.65625 9.390625 12.707031 9.410156 12.734375 9.4375 C 12.757812 9.464844 12.777344 9.503906 12.796875 9.539062 C 12.816406 9.578125 12.84375 9.621094 12.863281 9.664062 C 12.882812 9.710938 12.890625 9.769531 12.898438 9.824219 C 12.917969 9.949219 12.921875 10.078125 12.925781 10.207031 C 12.941406 11.316406 12.660156 12.417969 12.265625 13.445312 C 12.167969 13.695312 12.058594 13.9375 11.933594 14.171875 C 11.796875 14.429688 11.644531 14.6875 11.445312 14.902344 C 11.332031 15.019531 11.226562 15.113281 11.074219 15.179688 C 11.0625 15.183594 11.03125 15.203125 11.015625 15.199219 C 10.976562 15.199219 10.902344 15.160156 10.859375 15.144531 C 10.777344 15.117188 10.660156 15.089844 10.585938 15.042969 C 10.390625 14.925781 10.296875 14.726562 10.246094 14.511719 C 10.335938 14.523438 10.40625 14.519531 10.488281 14.480469 C 10.675781 14.382812 10.835938 14.027344 10.925781 13.84375 C 11.097656 13.484375 11.25 13.117188 11.378906 12.742188 C 11.636719 11.980469 11.84375 11.171875 11.90625 10.367188 C 11.925781 10.132812 11.957031 9.824219 11.84375 9.609375 C 11.789062 9.507812 11.714844 9.460938 11.613281 9.425781 C 11.726562 9.292969 11.882812 9.234375 12.050781 9.214844 Z M 12.050781 9.214844 "/>
<path style=" stroke:none;fill-rule:nonzero;fill:rgb(100%,100%,100%);fill-opacity:1;" d="M 3.796875 9.191406 L 3.835938 9.1875 C 4.050781 9.179688 4.230469 9.28125 4.386719 9.425781 C 4.332031 9.449219 4.28125 9.476562 4.238281 9.515625 C 4.117188 9.628906 4.09375 9.847656 4.089844 10.003906 C 4.085938 10.304688 4.125 10.621094 4.171875 10.921875 C 4.253906 11.457031 4.375 11.988281 4.53125 12.507812 C 4.671875 12.957031 4.835938 13.402344 5.046875 13.824219 C 5.140625 14.011719 5.238281 14.21875 5.382812 14.367188 C 5.445312 14.429688 5.523438 14.496094 5.609375 14.515625 C 5.648438 14.527344 5.699219 14.523438 5.738281 14.523438 C 5.722656 14.59375 5.707031 14.660156 5.675781 14.726562 C 5.617188 14.851562 5.511719 14.992188 5.382812 15.054688 C 5.332031 15.082031 5.269531 15.097656 5.214844 15.117188 C 5.148438 15.140625 5.0625 15.183594 4.996094 15.167969 L 4.984375 15.164062 C 4.886719 15.140625 4.804688 15.101562 4.722656 15.046875 C 4.5 14.894531 4.34375 14.65625 4.207031 14.429688 C 3.925781 13.96875 3.726562 13.46875 3.554688 12.957031 C 3.378906 12.429688 3.234375 11.882812 3.140625 11.335938 C 3.089844 11.046875 3.058594 10.753906 3.050781 10.464844 C 3.046875 10.207031 3.058594 9.957031 3.128906 9.707031 C 3.144531 9.640625 3.167969 9.554688 3.210938 9.5 C 3.339844 9.324219 3.585938 9.214844 3.796875 9.191406 Z M 3.796875 9.191406 "/>
<path style=" stroke:none;fill-rule:nonzero;fill:rgb(100%,100%,100%);fill-opacity:1;" d="M 7.8125 0.496094 C 8.003906 0.484375 8.203125 0.496094 8.394531 0.507812 C 8.734375 0.53125 9.070312 0.578125 9.40625 0.65625 C 10.683594 0.957031 11.859375 1.628906 12.769531 2.582031 C 13.132812 2.960938 13.445312 3.378906 13.722656 3.828125 C 13.894531 4.101562 14.03125 4.390625 14.160156 4.6875 C 14.335938 5.101562 14.480469 5.527344 14.574219 5.96875 C 14.703125 6.558594 14.742188 7.179688 14.707031 7.78125 C 14.691406 8.046875 14.671875 8.324219 14.609375 8.582031 L 13.847656 7.980469 C 13.839844 7.9375 13.847656 7.890625 13.851562 7.847656 C 13.917969 6.335938 13.34375 4.816406 12.324219 3.703125 C 11.269531 2.550781 9.777344 1.871094 8.222656 1.804688 L 7.933594 1.800781 C 6.414062 1.808594 4.898438 2.476562 3.832031 3.550781 C 2.90625 4.492188 2.332031 5.722656 2.179688 7.03125 C 2.140625 7.367188 2.140625 7.703125 2.140625 8.042969 L 1.371094 8.578125 L 1.277344 7.726562 C 1.25 7.128906 1.296875 6.527344 1.421875 5.945312 C 1.679688 4.746094 2.289062 3.585938 3.121094 2.6875 C 4.039062 1.691406 5.246094 0.953125 6.570312 0.652344 C 6.976562 0.558594 7.394531 0.511719 7.8125 0.496094 Z M 7.8125 0.496094 "/>
</g>
</svg>
