<?xml version="1.0" encoding="UTF-8"?>
<svg xmlns="http://www.w3.org/2000/svg" xmlns:xlink="http://www.w3.org/1999/xlink" width="64px" height="64px" viewBox="0 0 64 64" version="1.1">
<defs>
<linearGradient id="linear0" gradientUnits="userSpaceOnUse" x1="872.11432" y1="834.49622" x2="844.62921" y2="627.573" gradientTransform="matrix(0.0625,0,0,0.0625,0,0)">
<stop offset="0" style="stop-color:rgb(23.529412%,5.490196%,35.294118%);stop-opacity:1;"/>
<stop offset="1" style="stop-color:rgb(78.823529%,40.392157%,46.27451%);stop-opacity:1;"/>
</linearGradient>
<linearGradient id="linear1" gradientUnits="userSpaceOnUse" x1="844.75922" y1="711.83997" x2="863.534" y2="624.29285" gradientTransform="matrix(0.0625,0,0,0.0625,0,0)">
<stop offset="0" style="stop-color:rgb(29.019608%,9.411765%,32.941176%);stop-opacity:1;"/>
<stop offset="1" style="stop-color:rgb(68.235294%,33.72549%,41.568627%);stop-opacity:1;"/>
</linearGradient>
<linearGradient id="linear2" gradientUnits="userSpaceOnUse" x1="168.13225" y1="728.27838" x2="118.87352" y2="728.21527" gradientTransform="matrix(0.0625,0,0,0.0625,0,0)">
<stop offset="0" style="stop-color:rgb(64.705882%,22.352941%,34.117647%);stop-opacity:1;"/>
<stop offset="1" style="stop-color:rgb(85.098039%,80%,72.54902%);stop-opacity:1;"/>
</linearGradient>
<linearGradient id="linear3" gradientUnits="userSpaceOnUse" x1="191.85991" y1="691.62976" x2="143.74095" y2="682.46027" gradientTransform="matrix(0.0625,0,0,0.0625,0,0)">
<stop offset="0" style="stop-color:rgb(32.941176%,13.72549%,33.72549%);stop-opacity:1;"/>
<stop offset="1" style="stop-color:rgb(51.764706%,29.803922%,43.529412%);stop-opacity:1;"/>
</linearGradient>
<linearGradient id="linear4" gradientUnits="userSpaceOnUse" x1="657.65485" y1="903.66431" x2="668.28186" y2="702.17517" gradientTransform="matrix(0.0625,0,0,0.0625,0,0)">
<stop offset="0" style="stop-color:rgb(36.078431%,12.941176%,31.372549%);stop-opacity:1;"/>
<stop offset="1" style="stop-color:rgb(20.784314%,17.254902%,35.294118%);stop-opacity:1;"/>
</linearGradient>
<linearGradient id="linear5" gradientUnits="userSpaceOnUse" x1="512.71985" y1="123.92323" x2="511.99237" y2="282.91833" gradientTransform="matrix(0.0625,0,0,0.0625,0,0)">
<stop offset="0" style="stop-color:rgb(91.372549%,60.784314%,36.862745%);stop-opacity:1;"/>
<stop offset="1" style="stop-color:rgb(25.098039%,5.098039%,67.45098%);stop-opacity:1;"/>
</linearGradient>
<linearGradient id="linear6" gradientUnits="userSpaceOnUse" x1="145.88989" y1="678.77716" x2="332.67093" y2="741.07245" gradientTransform="matrix(0.0625,0,0,0.0625,0,0)">
<stop offset="0" style="stop-color:rgb(100%,88.627451%,42.745098%);stop-opacity:1;"/>
<stop offset="1" style="stop-color:rgb(10.196078%,47.058824%,53.72549%);stop-opacity:1;"/>
</linearGradient>
<linearGradient id="linear7" gradientUnits="userSpaceOnUse" x1="712.34772" y1="509.36688" x2="700.38635" y2="799.78937" gradientTransform="matrix(0.0625,0,0,0.0625,0,0)">
<stop offset="0" style="stop-color:rgb(100%,68.235294%,23.529412%);stop-opacity:1;"/>
<stop offset="1" style="stop-color:rgb(30.980392%,12.54902%,54.509804%);stop-opacity:1;"/>
</linearGradient>
<linearGradient id="linear8" gradientUnits="userSpaceOnUse" x1="734.62024" y1="497.67654" x2="676.789" y2="730.3009" gradientTransform="matrix(0.0625,0,0,0.0625,0,0)">
<stop offset="0" style="stop-color:rgb(80.392157%,46.27451%,42.352941%);stop-opacity:1;"/>
<stop offset="1" style="stop-color:rgb(45.098039%,26.27451%,49.803922%);stop-opacity:1;"/>
</linearGradient>
<linearGradient id="linear9" gradientUnits="userSpaceOnUse" x1="881.5824" y1="671.8999" x2="683.34821" y2="754.87347" gradientTransform="matrix(0.0625,0,0,0.0625,0,0)">
<stop offset="0" style="stop-color:rgb(100%,85.882353%,41.176471%);stop-opacity:1;"/>
<stop offset="1" style="stop-color:rgb(5.098039%,49.803922%,55.294118%);stop-opacity:1;"/>
</linearGradient>
<linearGradient id="linear10" gradientUnits="userSpaceOnUse" x1="483.54041" y1="602.17377" x2="453.53094" y2="151.83023" gradientTransform="matrix(0.0625,0,0,0.0625,0,0)">
<stop offset="0" style="stop-color:rgb(22.352941%,8.235294%,23.921569%);stop-opacity:1;"/>
<stop offset="1" style="stop-color:rgb(30.196078%,19.607843%,32.54902%);stop-opacity:1;"/>
</linearGradient>
<linearGradient id="linear11" gradientUnits="userSpaceOnUse" x1="360.2215" y1="861.81427" x2="297.5816" y2="500.08105" gradientTransform="matrix(0.0625,0,0,0.0625,0,0)">
<stop offset="0" style="stop-color:rgb(24.705882%,12.156863%,39.215686%);stop-opacity:1;"/>
<stop offset="1" style="stop-color:rgb(70.196078%,42.745098%,57.647059%);stop-opacity:1;"/>
</linearGradient>
<linearGradient id="linear12" gradientUnits="userSpaceOnUse" x1="297.27945" y1="510.99115" x2="336.60165" y2="716.77014" gradientTransform="matrix(0.0625,0,0,0.0625,0,0)">
<stop offset="0" style="stop-color:rgb(100%,66.666667%,18.039216%);stop-opacity:1;"/>
<stop offset="1" style="stop-color:rgb(53.333333%,27.45098%,55.294118%);stop-opacity:1;"/>
</linearGradient>
<linearGradient id="linear13" gradientUnits="userSpaceOnUse" x1="316.90326" y1="538.94781" x2="218.82076" y2="875.284" gradientTransform="matrix(0.0625,0,0,0.0625,0,0)">
<stop offset="0" style="stop-color:rgb(40.392157%,70.588235%,49.411765%);stop-opacity:1;"/>
<stop offset="1" style="stop-color:rgb(0%,36.078431%,60.784314%);stop-opacity:1;"/>
</linearGradient>
</defs>
<g id="surface1">
<rect x="0" y="0" width="64" height="64" style="fill:rgb(89.411765%,54.117647%,23.529412%);fill-opacity:1;stroke:none;"/>
<path style=" stroke:none;fill-rule:nonzero;fill:rgb(78.823529%,44.705882%,20%);fill-opacity:1;" d="M 48.230469 32.71875 C 48.332031 32.609375 48.417969 32.535156 48.578125 32.53125 C 49.632812 32.496094 50.660156 33.132812 51.382812 33.847656 C 52.132812 34.597656 52.746094 35.546875 53.140625 36.527344 C 53.269531 36.851562 53.347656 37.199219 53.484375 37.515625 L 53.527344 37.394531 L 53.503906 38.253906 C 53.503906 38.417969 53.519531 38.597656 53.472656 38.753906 L 53.179688 37.554688 C 52.707031 35.933594 51.871094 34.515625 50.488281 33.515625 C 49.867188 32.988281 49.078125 32.824219 48.292969 32.75 Z M 48.230469 32.71875 "/>
<path style=" stroke:none;fill-rule:nonzero;fill:rgb(77.254902%,53.72549%,50.196078%);fill-opacity:1;" d="M 56.078125 39.167969 C 56.199219 39.210938 56.304688 39.25 56.40625 39.328125 C 56.421875 39.683594 56.382812 40.046875 56.363281 40.402344 L 56.0625 43.234375 C 55.921875 44.253906 55.707031 45.261719 55.480469 46.265625 C 55.433594 46.472656 55.410156 46.746094 55.324219 46.933594 L 54.773438 49.191406 C 54.613281 49.816406 54.433594 50.425781 54.203125 51.027344 C 54.082031 51.34375 53.945312 51.699219 53.730469 51.964844 C 53.648438 52.0625 53.542969 52.136719 53.4375 52.210938 L 53.753906 51.285156 L 54.132812 49.976562 C 54.238281 49.613281 54.285156 49.210938 54.429688 48.867188 L 54.878906 46.800781 C 54.890625 46.460938 55.027344 46.046875 55.101562 45.710938 L 55.421875 44.117188 C 55.554688 43.761719 55.5 43.3125 55.652344 42.957031 L 56.050781 39.347656 Z M 56.078125 39.167969 "/>
<path style=" stroke:none;fill-rule:nonzero;fill:rgb(21.960784%,7.058824%,19.607843%);fill-opacity:1;" d="M 21.617188 32.21875 C 22.082031 32.734375 22.40625 33.253906 22.628906 33.917969 C 22.808594 34.457031 22.875 35.050781 22.96875 35.609375 L 23.355469 37.734375 L 24.308594 43.03125 L 25.035156 47.308594 L 25.410156 49.53125 C 25.480469 49.957031 25.527344 50.40625 25.636719 50.824219 L 25.640625 50.878906 C 25.703125 51.453125 25.816406 52.039062 25.917969 52.605469 C 26.019531 53.1875 26.144531 53.722656 26.003906 54.3125 L 25.992188 54.363281 C 25.917969 54.679688 25.78125 54.972656 25.609375 55.246094 C 25.578125 55.1875 25.550781 55.144531 25.550781 55.078125 C 25.535156 54.511719 25.425781 53.964844 25.335938 53.410156 L 24.734375 50.082031 L 23.945312 45.558594 C 23.808594 44.761719 23.726562 43.945312 23.539062 43.160156 C 23.4375 42.878906 23.421875 42.5 23.371094 42.203125 L 23.050781 40.445312 C 22.976562 40.023438 22.921875 39.589844 22.808594 39.175781 C 22.800781 38.960938 22.742188 38.738281 22.703125 38.527344 L 22.484375 37.296875 L 22.160156 35.4375 C 22.089844 35.019531 22.042969 34.558594 21.917969 34.152344 Z M 21.617188 32.21875 "/>
<path style=" stroke:none;fill-rule:nonzero;fill:rgb(21.960784%,7.058824%,19.607843%);fill-opacity:1;" d="M 42.796875 31.730469 L 42.789062 31.769531 C 42.761719 31.875 42.675781 31.96875 42.628906 32.070312 C 42.511719 32.320312 42.433594 32.59375 42.363281 32.855469 C 42.171875 33.578125 42.046875 34.316406 41.910156 35.050781 L 41.382812 37.941406 L 41.078125 39.59375 C 41.046875 39.789062 40.984375 40.011719 40.972656 40.210938 L 40.363281 43.679688 C 40.242188 44.167969 40.171875 44.664062 40.085938 45.15625 L 39.527344 48.5 L 38.839844 52.449219 L 38.566406 53.9375 C 38.53125 54.179688 38.511719 54.433594 38.507812 54.679688 C 38.503906 54.867188 38.59375 55.167969 38.519531 55.335938 L 38.460938 55.261719 C 38.132812 54.800781 37.890625 54.195312 37.863281 53.625 C 37.851562 53.386719 37.902344 53.144531 37.941406 52.910156 L 38.148438 51.722656 L 38.46875 49.828125 L 39.164062 45.8125 L 40.527344 38.4375 L 40.960938 36.101562 C 41.089844 35.375 41.195312 34.636719 41.4375 33.933594 C 41.730469 33.082031 42.136719 32.351562 42.796875 31.730469 Z M 42.796875 31.730469 "/>
<path style=" stroke:none;fill-rule:nonzero;fill:url(#linear0);" d="M 53.46875 39.003906 C 53.65625 39.003906 53.84375 38.992188 54.027344 39.039062 L 54.328125 39.097656 L 56.050781 39.347656 L 55.652344 42.957031 C 55.5 43.3125 55.554688 43.761719 55.421875 44.117188 L 55.101562 45.710938 C 55.027344 46.046875 54.890625 46.460938 54.878906 46.800781 L 54.429688 48.867188 C 54.285156 49.210938 54.238281 49.613281 54.132812 49.976562 L 53.753906 51.285156 L 53.4375 52.210938 C 53.347656 52.269531 53.25 52.335938 53.140625 52.355469 C 52.902344 52.40625 52.605469 52.359375 52.359375 52.332031 L 51.3125 52.226562 L 50.519531 52.148438 L 50.507812 52.117188 C 51.207031 50.9375 51.609375 49.507812 51.925781 48.179688 L 52.867188 43.847656 C 52.886719 43.527344 53 43.214844 53.023438 42.890625 L 53.128906 42.316406 Z M 53.46875 39.003906 "/>
<path style=" stroke:none;fill-rule:nonzero;fill:url(#linear1);" d="M 53.46875 39.003906 C 53.65625 39.003906 53.84375 38.992188 54.027344 39.039062 C 53.867188 39.214844 53.910156 39.496094 53.867188 39.71875 L 53.5625 42.644531 L 53.46875 43.570312 C 53.34375 43.902344 53.386719 44.324219 53.277344 44.675781 C 53.292969 44.582031 53.292969 44.507812 53.273438 44.417969 L 53.265625 44.375 L 53.296875 44.34375 C 53.300781 44.292969 53.304688 44.25 53.300781 44.199219 L 53.296875 44.15625 C 53.351562 44.101562 53.328125 44.011719 53.328125 43.9375 C 53.363281 43.882812 53.371094 43.847656 53.367188 43.78125 C 53.363281 43.710938 53.363281 43.683594 53.390625 43.613281 C 53.414062 43.558594 53.398438 43.527344 53.390625 43.46875 C 53.421875 43.402344 53.4375 43.359375 53.429688 43.28125 C 53.421875 43.226562 53.421875 43.195312 53.4375 43.140625 C 53.460938 43.058594 53.4375 42.953125 53.46875 42.882812 C 53.503906 42.800781 53.496094 42.808594 53.484375 42.71875 C 53.367188 42.699219 53.269531 42.65625 53.167969 42.597656 L 53.136719 42.582031 L 52.996094 43.382812 L 52.949219 43.664062 C 52.945312 43.726562 52.941406 43.757812 52.902344 43.804688 L 52.867188 43.847656 C 52.886719 43.527344 53 43.214844 53.023438 42.890625 L 53.128906 42.316406 Z M 53.46875 39.003906 "/>
<path style=" stroke:none;fill-rule:nonzero;fill:rgb(41.960784%,14.117647%,25.490196%);fill-opacity:1;" d="M 52.867188 43.847656 L 52.902344 43.804688 C 52.941406 43.757812 52.945312 43.726562 52.949219 43.664062 L 52.996094 43.382812 L 53.136719 42.582031 L 53.167969 42.597656 C 53.269531 42.65625 53.367188 42.699219 53.484375 42.71875 C 53.496094 42.808594 53.503906 42.800781 53.46875 42.882812 C 53.4375 42.953125 53.460938 43.058594 53.4375 43.140625 C 53.421875 43.195312 53.421875 43.226562 53.429688 43.28125 C 53.4375 43.359375 53.421875 43.402344 53.390625 43.46875 C 53.398438 43.527344 53.414062 43.558594 53.390625 43.613281 C 53.363281 43.683594 53.363281 43.710938 53.367188 43.78125 C 53.371094 43.847656 53.363281 43.882812 53.328125 43.9375 C 53.328125 44.011719 53.351562 44.101562 53.296875 44.15625 L 53.300781 44.199219 C 53.304688 44.25 53.300781 44.292969 53.296875 44.34375 L 53.265625 44.375 L 53.273438 44.417969 C 53.292969 44.507812 53.292969 44.582031 53.277344 44.675781 C 53.011719 46.453125 52.628906 48.195312 52.105469 49.914062 C 51.957031 50.410156 51.824219 50.910156 51.636719 51.390625 L 51.542969 51.640625 C 51.46875 51.820312 51.347656 52.035156 51.3125 52.226562 L 50.519531 52.148438 L 50.507812 52.117188 C 51.207031 50.9375 51.609375 49.507812 51.925781 48.179688 Z M 52.867188 43.847656 "/>
<path style=" stroke:none;fill-rule:nonzero;fill:rgb(41.568627%,29.803922%,44.313725%);fill-opacity:1;" d="M 10.480469 38.828125 C 10.5625 38.925781 10.554688 38.96875 10.566406 39.09375 C 10.542969 40.292969 10.761719 41.449219 10.960938 42.625 L 11.886719 47.753906 L 11.953125 47.960938 C 12.191406 49.054688 12.535156 50.148438 12.964844 51.183594 C 13.117188 51.542969 13.328125 51.890625 13.464844 52.253906 L 11.566406 52.285156 C 11.371094 52.285156 11.023438 52.335938 10.839844 52.273438 C 10.515625 52.164062 10.332031 51.875 10.199219 51.582031 C 10.039062 51.375 9.933594 51.066406 9.832031 50.824219 C 9.484375 50.003906 9.21875 49.160156 8.972656 48.304688 C 8.871094 47.953125 8.746094 47.585938 8.695312 47.222656 C 8.507812 46.660156 8.40625 46.019531 8.285156 45.4375 C 7.882812 43.457031 7.546875 41.414062 7.4375 39.390625 C 7.503906 39.230469 7.621094 39.160156 7.773438 39.089844 L 7.898438 39.171875 L 7.929688 39.179688 L 7.980469 39.191406 C 8.507812 39.304688 9.050781 39.246094 9.570312 39.117188 L 9.570312 39.101562 C 9.832031 39.074219 10.253906 38.964844 10.480469 38.828125 Z M 10.480469 38.828125 "/>
<path style=" stroke:none;fill-rule:nonzero;fill:url(#linear2);" d="M 7.773438 39.089844 L 7.898438 39.171875 C 7.949219 40.511719 8.109375 41.871094 8.324219 43.191406 C 8.351562 43.355469 8.359375 43.628906 8.429688 43.773438 L 8.589844 44.714844 C 8.609375 44.824219 8.625 45.019531 8.671875 45.113281 L 9.085938 47.089844 L 10.273438 51.214844 C 10.308594 51.308594 10.320312 51.386719 10.324219 51.484375 C 10.328125 51.53125 10.34375 51.554688 10.367188 51.597656 C 10.414062 51.679688 10.371094 51.597656 10.402344 51.699219 L 10.441406 51.800781 L 10.515625 51.96875 L 10.484375 51.964844 L 10.375 51.8125 L 10.210938 51.535156 L 10.199219 51.582031 C 10.039062 51.375 9.933594 51.066406 9.832031 50.824219 C 9.484375 50.003906 9.21875 49.160156 8.972656 48.304688 C 8.871094 47.953125 8.746094 47.585938 8.695312 47.222656 C 8.507812 46.660156 8.40625 46.019531 8.285156 45.4375 C 7.882812 43.457031 7.546875 41.414062 7.4375 39.390625 C 7.503906 39.230469 7.621094 39.160156 7.773438 39.089844 Z M 7.773438 39.089844 "/>
<path style=" stroke:none;fill-rule:nonzero;fill:url(#linear3);" d="M 10.480469 38.828125 C 10.5625 38.925781 10.554688 38.96875 10.566406 39.09375 C 10.542969 40.292969 10.761719 41.449219 10.960938 42.625 L 11.886719 47.753906 L 11.828125 47.65625 C 11.796875 47.609375 11.796875 47.578125 11.789062 47.519531 C 11.785156 47.480469 11.78125 47.449219 11.769531 47.40625 C 11.75 47.339844 11.734375 47.277344 11.726562 47.207031 L 11.71875 47.140625 C 11.6875 47.023438 11.679688 46.898438 11.648438 46.78125 C 11.625 46.699219 11.59375 46.628906 11.589844 46.542969 L 11.585938 46.445312 C 11.578125 46.410156 11.558594 46.347656 11.546875 46.3125 C 11.519531 46.230469 11.527344 46.292969 11.523438 46.226562 C 11.523438 46.179688 11.527344 46.195312 11.515625 46.148438 L 11.492188 46.0625 L 11.484375 46.015625 L 11.464844 46.058594 L 11.433594 46.082031 C 11.359375 46.152344 11.273438 46.398438 11.265625 46.507812 L 11.265625 46.539062 C 11.226562 46.582031 11.214844 46.601562 11.199219 46.660156 L 11.1875 46.71875 L 11.148438 46.804688 C 11.117188 46.921875 11.105469 46.96875 11.035156 47.074219 L 11.011719 47.105469 C 11.007812 47.179688 11.007812 47.226562 11.03125 47.296875 C 11.058594 47.375 11.066406 47.402344 11.046875 47.484375 L 10.429688 44.679688 L 10.421875 44.648438 L 10.203125 43.445312 L 9.785156 40.449219 L 9.671875 39.449219 C 9.664062 39.394531 9.660156 39.230469 9.632812 39.1875 C 9.617188 39.160156 9.589844 39.140625 9.570312 39.117188 L 9.570312 39.101562 C 9.832031 39.074219 10.253906 38.964844 10.480469 38.828125 Z M 10.480469 38.828125 "/>
<path style=" stroke:none;fill-rule:nonzero;fill:url(#linear4);" d="M 38.519531 55.335938 C 38.59375 55.167969 38.503906 54.867188 38.507812 54.679688 C 38.511719 54.433594 38.53125 54.179688 38.566406 53.9375 L 38.839844 52.449219 L 39.527344 48.5 L 40.085938 45.15625 C 40.171875 44.664062 40.242188 44.167969 40.363281 43.679688 L 41.027344 44.875 C 41.140625 45.074219 41.25 45.289062 41.390625 45.46875 C 41.496094 45.765625 41.714844 46.070312 41.878906 46.34375 L 42.929688 48.082031 L 43.261719 48.570312 C 43.542969 49.03125 43.761719 49.609375 44.109375 50.015625 C 44.1875 49.992188 44.210938 49.941406 44.28125 49.90625 L 44.546875 49.695312 L 44.75 49.515625 L 44.785156 49.492188 C 44.851562 49.433594 44.910156 49.347656 44.992188 49.3125 C 45.019531 49.253906 45.035156 49.203125 45.046875 49.140625 L 45.195312 48.375 C 45.207031 48.3125 45.203125 48.335938 45.203125 48.265625 L 45.234375 48.234375 C 45.234375 48.15625 45.222656 48.128906 45.265625 48.0625 C 45.265625 47.984375 45.253906 47.941406 45.296875 47.875 C 45.296875 47.800781 45.285156 47.78125 45.328125 47.71875 C 45.328125 47.640625 45.316406 47.597656 45.359375 47.53125 C 45.359375 47.457031 45.347656 47.4375 45.390625 47.375 C 45.390625 47.308594 45.371094 47.253906 45.421875 47.203125 C 45.421875 47.160156 45.414062 47.117188 45.421875 47.078125 C 45.4375 47.015625 45.476562 47.058594 45.460938 46.972656 C 45.449219 46.90625 45.449219 46.9375 45.46875 46.875 C 45.484375 46.816406 45.484375 46.761719 45.484375 46.703125 L 45.53125 46.640625 L 45.523438 46.597656 C 45.511719 46.527344 45.511719 46.566406 45.53125 46.5 L 45.554688 46.382812 C 45.566406 46.328125 45.558594 46.355469 45.578125 46.296875 C 45.59375 46.25 45.597656 46.210938 45.597656 46.160156 L 45.648438 46.085938 C 45.640625 46.203125 45.636719 46.320312 45.605469 46.4375 L 45.546875 46.78125 L 45.484375 47.15625 L 45.421875 47.5 L 45.355469 47.84375 L 45.234375 48.527344 C 45.179688 48.75 45.175781 49.132812 45.066406 49.320312 C 45.015625 49.410156 44.804688 49.5625 44.71875 49.625 L 44.34375 49.9375 L 44.132812 50.109375 L 44.132812 50.171875 C 44.121094 50.71875 43.972656 51.308594 43.878906 51.851562 L 43.230469 55.492188 L 42.992188 56.460938 C 42.8125 56.515625 42.609375 56.574219 42.421875 56.589844 C 41.996094 56.625 41.554688 56.546875 41.128906 56.511719 C 40.746094 56.476562 40.347656 56.46875 39.96875 56.402344 C 39.351562 56.296875 38.867188 55.824219 38.519531 55.335938 Z M 38.519531 55.335938 "/>
<path style=" stroke:none;fill-rule:nonzero;fill:url(#linear5);" d="M 24.953125 8.742188 C 25.109375 8.65625 25.289062 8.628906 25.457031 8.582031 L 26.777344 8.265625 C 27.476562 8.113281 28.191406 8.019531 28.902344 7.933594 C 32.328125 7.515625 35.882812 7.78125 39.191406 8.785156 C 39.648438 8.925781 40.191406 9.0625 40.617188 9.285156 C 41.273438 9.515625 41.917969 9.800781 42.546875 10.101562 C 42.695312 10.171875 42.9375 10.246094 43.054688 10.355469 C 44.128906 10.855469 45.152344 11.496094 46.117188 12.183594 C 48.191406 13.667969 50.058594 15.480469 51.460938 17.621094 L 50.941406 17.625 L 49.742188 17.625 L 49.726562 17.617188 C 49.652344 17.464844 49.523438 17.320312 49.417969 17.1875 C 48.839844 16.433594 48.191406 15.78125 47.5 15.132812 C 46.695312 14.375 45.859375 13.65625 44.921875 13.058594 L 43.648438 12.285156 C 43.363281 12.125 43.0625 11.980469 42.789062 11.800781 C 42.636719 11.746094 42.492188 11.660156 42.351562 11.585938 C 41.34375 11.117188 40.3125 10.675781 39.253906 10.339844 C 34.933594 8.976562 30.09375 8.917969 25.71875 10.058594 C 24.84375 10.289062 24.015625 10.589844 23.167969 10.894531 C 22.246094 11.320312 21.339844 11.738281 20.453125 12.242188 C 18.550781 13.316406 16.761719 14.710938 15.328125 16.367188 C 14.992188 16.753906 14.597656 17.160156 14.335938 17.597656 L 14.320312 17.605469 L 12.578125 17.613281 C 14.054688 15.53125 15.871094 13.613281 17.933594 12.101562 C 19.039062 11.289062 20.269531 10.597656 21.511719 10.019531 C 22.625 9.496094 23.761719 9.050781 24.953125 8.742188 Z M 24.953125 8.742188 "/>
<path style=" stroke:none;fill-rule:nonzero;fill:rgb(12.941176%,63.137255%,67.45098%);fill-opacity:1;" d="M 46.652344 17.597656 C 46.542969 17.566406 46.414062 17.582031 46.300781 17.582031 L 45.59375 17.582031 C 45.738281 17.5 46.28125 17.539062 46.46875 17.554688 C 46.785156 17.582031 47.183594 17.589844 47.5 17.554688 C 47.617188 17.542969 47.757812 17.542969 47.875 17.554688 L 47.921875 17.5625 C 48.308594 17.558594 48.753906 17.609375 49.140625 17.5625 C 49.296875 17.542969 49.449219 17.566406 49.609375 17.546875 C 49.566406 17.457031 49.503906 17.363281 49.433594 17.289062 L 49.398438 17.257812 L 49.417969 17.1875 C 49.523438 17.320312 49.652344 17.464844 49.726562 17.617188 L 49.742188 17.625 L 50.941406 17.625 L 51.460938 17.621094 C 52.195312 18.578125 52.804688 19.628906 53.359375 20.699219 C 54.292969 22.507812 55.050781 24.414062 55.542969 26.390625 C 55.953125 28.019531 56.175781 29.675781 56.3125 31.34375 L 56.410156 33.371094 C 56.414062 33.667969 56.433594 33.976562 56.40625 34.265625 L 56.351562 36.289062 C 56.339844 36.601562 56.351562 36.957031 56.285156 37.257812 C 56.253906 37.882812 56.207031 38.558594 56.078125 39.167969 L 56.050781 39.347656 L 54.328125 39.097656 L 54.027344 39.039062 C 53.84375 38.992188 53.65625 39.003906 53.46875 39.003906 L 53.472656 38.753906 C 53.519531 38.597656 53.503906 38.417969 53.503906 38.253906 L 53.527344 37.394531 L 53.554688 36.46875 C 53.640625 31.667969 52.84375 26.804688 50.503906 22.5625 C 49.945312 21.550781 49.269531 20.578125 48.554688 19.675781 C 47.972656 18.9375 47.304688 18.273438 46.652344 17.597656 Z M 46.652344 17.597656 "/>
<path style=" stroke:none;fill-rule:nonzero;fill:rgb(21.960784%,7.058824%,19.607843%);fill-opacity:1;" d="M 46.652344 17.597656 C 46.542969 17.566406 46.414062 17.582031 46.300781 17.582031 L 45.59375 17.582031 C 45.738281 17.5 46.28125 17.539062 46.46875 17.554688 C 46.785156 17.582031 47.183594 17.589844 47.5 17.554688 C 47.617188 17.542969 47.757812 17.542969 47.875 17.554688 L 47.921875 17.5625 C 48.308594 17.558594 48.753906 17.609375 49.140625 17.5625 C 49.296875 17.542969 49.449219 17.566406 49.609375 17.546875 C 49.566406 17.457031 49.503906 17.363281 49.433594 17.289062 L 49.398438 17.257812 L 49.417969 17.1875 C 49.523438 17.320312 49.652344 17.464844 49.726562 17.617188 L 47.957031 17.613281 C 49.171875 18.988281 50.320312 20.417969 51.234375 22.015625 C 51.726562 22.867188 52.125 23.753906 52.488281 24.664062 C 53.730469 27.765625 54.292969 31.007812 54.425781 34.332031 C 54.480469 35.675781 54.484375 37.015625 54.398438 38.359375 L 54.328125 39.097656 L 54.027344 39.039062 C 53.84375 38.992188 53.65625 39.003906 53.46875 39.003906 L 53.472656 38.753906 C 53.519531 38.597656 53.503906 38.417969 53.503906 38.253906 L 53.527344 37.394531 L 53.554688 36.46875 C 53.640625 31.667969 52.84375 26.804688 50.503906 22.5625 C 49.945312 21.550781 49.269531 20.578125 48.554688 19.675781 C 47.972656 18.9375 47.304688 18.273438 46.652344 17.597656 Z M 46.652344 17.597656 "/>
<path style=" stroke:none;fill-rule:nonzero;fill:rgb(39.215686%,72.54902%,72.941176%);fill-opacity:1;" d="M 51.460938 17.621094 C 52.195312 18.578125 52.804688 19.628906 53.359375 20.699219 C 54.292969 22.507812 55.050781 24.414062 55.542969 26.390625 C 55.953125 28.019531 56.175781 29.675781 56.3125 31.34375 L 56.410156 33.371094 C 56.414062 33.667969 56.433594 33.976562 56.40625 34.265625 L 56.351562 36.289062 C 56.339844 36.601562 56.351562 36.957031 56.285156 37.257812 L 56.265625 37.015625 C 56.21875 37.105469 56.246094 37.246094 56.226562 37.347656 C 56.1875 37.570312 56.183594 37.804688 56.171875 38.03125 C 56.121094 38.105469 56.144531 38.222656 56.148438 38.3125 C 56.125 38.359375 56.132812 38.335938 56.125 38.40625 L 56.117188 38.46875 C 56.109375 38.535156 56.105469 38.496094 56.117188 38.566406 L 56.125 38.609375 L 56.078125 38.640625 L 56.085938 38.84375 C 56.0625 38.96875 56.074219 38.8125 56.066406 38.914062 C 56.066406 38.960938 56.066406 39.007812 56.054688 39.058594 L 56.046875 39.09375 C 56.039062 39.121094 56.035156 39.148438 56.023438 39.171875 C 55.988281 39.230469 55.96875 39.246094 55.90625 39.265625 C 55.707031 39.179688 55.507812 39.214844 55.296875 39.140625 C 55.296875 38.929688 55.261719 38.664062 55.308594 38.460938 C 55.335938 38.339844 55.308594 38.226562 55.328125 38.109375 C 55.40625 37.617188 55.382812 37.09375 55.386719 36.589844 L 55.414062 35.472656 L 55.394531 32.992188 C 55.214844 29.132812 54.304688 25.378906 52.515625 21.945312 C 51.992188 20.9375 51.40625 19.980469 50.757812 19.046875 L 50.105469 18.140625 C 49.992188 17.988281 49.851562 17.832031 49.761719 17.667969 L 49.742188 17.625 L 50.941406 17.625 Z M 51.460938 17.621094 "/>
<path style=" stroke:none;fill-rule:nonzero;fill:rgb(74.509804%,80.392157%,76.862745%);fill-opacity:1;" d="M 51.460938 17.621094 C 52.195312 18.578125 52.804688 19.628906 53.359375 20.699219 C 54.292969 22.507812 55.050781 24.414062 55.542969 26.390625 C 55.953125 28.019531 56.175781 29.675781 56.3125 31.34375 L 56.410156 33.371094 C 56.414062 33.667969 56.433594 33.976562 56.40625 34.265625 C 56.375 34.105469 56.382812 33.929688 56.378906 33.765625 L 56.339844 32.746094 C 56.292969 31.789062 56.214844 30.820312 56.0625 29.875 C 55.519531 26.476562 54.398438 23.207031 52.65625 20.234375 L 51.523438 18.488281 C 51.34375 18.222656 51.125 17.960938 50.96875 17.679688 L 50.941406 17.625 Z M 51.460938 17.621094 "/>
<path style=" stroke:none;fill-rule:nonzero;fill:url(#linear6);" d="M 12.679688 34.046875 C 13.003906 33.777344 13.320312 33.558594 13.679688 33.339844 C 13.765625 34.933594 14.074219 36.539062 14.34375 38.109375 L 14.4375 38.664062 C 14.449219 38.730469 14.457031 38.835938 14.488281 38.894531 L 14.550781 39.257812 L 15.109375 42.363281 L 15.144531 42.5 L 16.167969 48.023438 L 17.386719 54.648438 L 17.425781 54.8125 L 17.46875 55.03125 L 17.5 55.15625 C 17.523438 55.25 17.535156 55.34375 17.5625 55.4375 L 17.617188 55.707031 C 17.625 55.765625 17.652344 55.816406 17.675781 55.871094 L 16.832031 55.476562 C 16.011719 55.066406 15.28125 54.550781 14.652344 53.886719 C 14.480469 53.707031 14.253906 53.476562 14.144531 53.253906 C 13.871094 53 13.660156 52.570312 13.464844 52.253906 C 13.328125 51.890625 13.117188 51.542969 12.964844 51.183594 C 12.535156 50.148438 12.191406 49.054688 11.953125 47.960938 L 11.886719 47.753906 L 10.960938 42.625 C 10.761719 41.449219 10.542969 40.292969 10.566406 39.09375 C 10.554688 38.96875 10.5625 38.925781 10.480469 38.828125 C 10.460938 38.757812 10.449219 38.714844 10.460938 38.644531 C 10.515625 38.183594 10.519531 37.71875 10.53125 37.257812 C 10.671875 37.058594 10.730469 36.695312 10.828125 36.460938 C 11.144531 35.683594 11.597656 35.042969 12.199219 34.464844 C 12.351562 34.316406 12.5 34.15625 12.679688 34.046875 Z M 12.679688 34.046875 "/>
<path style=" stroke:none;fill-rule:nonzero;fill:rgb(41.568627%,29.803922%,44.313725%);fill-opacity:1;" d="M 10.53125 37.257812 C 10.671875 37.058594 10.730469 36.695312 10.828125 36.460938 C 11.144531 35.683594 11.597656 35.042969 12.199219 34.464844 C 12.351562 34.316406 12.5 34.15625 12.679688 34.046875 C 11.570312 35.15625 10.988281 36.507812 10.703125 38.035156 L 10.597656 38.765625 C 10.585938 38.875 10.59375 38.988281 10.566406 39.09375 C 10.554688 38.96875 10.5625 38.925781 10.480469 38.828125 C 10.460938 38.757812 10.449219 38.714844 10.460938 38.644531 C 10.515625 38.183594 10.519531 37.71875 10.53125 37.257812 Z M 10.53125 37.257812 "/>
<path style=" stroke:none;fill-rule:nonzero;fill:url(#linear7);" d="M 42.796875 31.730469 C 42.96875 31.578125 43.128906 31.496094 43.339844 31.410156 C 43.484375 31.351562 43.640625 31.300781 43.796875 31.285156 C 44.199219 31.253906 44.625 31.289062 45.027344 31.296875 L 46.28125 31.320312 C 46.554688 31.328125 46.855469 31.308594 47.109375 31.421875 C 47.585938 31.632812 47.859375 31.945312 48.078125 32.410156 C 48.105469 32.515625 48.140625 32.621094 48.15625 32.730469 C 48.078125 32.917969 48.066406 33.128906 48.027344 33.324219 L 47.773438 34.703125 L 47.257812 37.472656 L 46.753906 40.082031 L 45.648438 46.085938 L 45.597656 46.160156 C 45.597656 46.210938 45.59375 46.25 45.578125 46.296875 C 45.558594 46.355469 45.566406 46.328125 45.554688 46.382812 L 45.53125 46.5 C 45.511719 46.566406 45.511719 46.527344 45.523438 46.597656 L 45.53125 46.640625 L 45.484375 46.703125 C 45.484375 46.761719 45.484375 46.816406 45.46875 46.875 C 45.449219 46.9375 45.449219 46.90625 45.460938 46.972656 C 45.476562 47.058594 45.4375 47.015625 45.421875 47.078125 C 45.414062 47.117188 45.421875 47.160156 45.421875 47.203125 C 45.371094 47.253906 45.390625 47.308594 45.390625 47.375 C 45.347656 47.4375 45.359375 47.457031 45.359375 47.53125 C 45.316406 47.597656 45.328125 47.640625 45.328125 47.71875 C 45.285156 47.78125 45.296875 47.800781 45.296875 47.875 C 45.253906 47.941406 45.265625 47.984375 45.265625 48.0625 C 45.222656 48.128906 45.234375 48.15625 45.234375 48.234375 L 45.203125 48.265625 C 45.203125 48.335938 45.207031 48.3125 45.195312 48.375 L 45.046875 49.140625 C 45.035156 49.203125 45.019531 49.253906 44.992188 49.3125 C 44.910156 49.347656 44.851562 49.433594 44.785156 49.492188 L 44.75 49.515625 L 44.546875 49.695312 L 44.28125 49.90625 C 44.210938 49.941406 44.1875 49.992188 44.109375 50.015625 C 43.761719 49.609375 43.542969 49.03125 43.261719 48.570312 L 42.929688 48.082031 L 41.878906 46.34375 C 41.714844 46.070312 41.496094 45.765625 41.390625 45.46875 C 41.25 45.289062 41.140625 45.074219 41.027344 44.875 L 40.363281 43.679688 L 40.972656 40.210938 C 40.984375 40.011719 41.046875 39.789062 41.078125 39.59375 L 41.382812 37.941406 L 41.910156 35.050781 C 42.046875 34.316406 42.171875 33.578125 42.363281 32.855469 C 42.433594 32.59375 42.511719 32.320312 42.628906 32.070312 C 42.675781 31.96875 42.761719 31.875 42.789062 31.769531 Z M 42.796875 31.730469 "/>
<path style=" stroke:none;fill-rule:nonzero;fill:url(#linear8);" d="M 42.796875 31.730469 C 42.96875 31.578125 43.128906 31.496094 43.339844 31.410156 C 43.484375 31.351562 43.640625 31.300781 43.796875 31.285156 C 44.199219 31.253906 44.625 31.289062 45.027344 31.296875 L 46.28125 31.320312 C 46.554688 31.328125 46.855469 31.308594 47.109375 31.421875 C 47.585938 31.632812 47.859375 31.945312 48.078125 32.410156 C 48.105469 32.515625 48.140625 32.621094 48.15625 32.730469 C 48.078125 32.917969 48.066406 33.128906 48.027344 33.324219 L 47.773438 34.703125 L 47.257812 37.472656 L 46.753906 40.082031 L 46.671875 40.171875 L 46.6875 40.234375 C 46.65625 40.304688 46.664062 40.371094 46.640625 40.4375 C 46.613281 40.519531 46.609375 40.535156 46.609375 40.625 C 46.550781 40.710938 46.609375 40.679688 46.59375 40.75 C 46.578125 40.835938 46.542969 40.808594 46.5625 40.921875 L 46.515625 40.984375 C 46.519531 41.027344 46.53125 41.082031 46.515625 41.125 C 46.488281 41.199219 46.484375 41.199219 46.484375 41.28125 C 46.425781 41.367188 46.480469 41.355469 46.46875 41.4375 C 46.457031 41.511719 46.421875 41.527344 46.421875 41.625 C 46.378906 41.6875 46.390625 41.707031 46.390625 41.78125 C 46.347656 41.84375 46.359375 41.863281 46.359375 41.9375 C 46.320312 42 46.328125 42.007812 46.328125 42.078125 L 46.3125 42.054688 C 46.234375 42.007812 46.160156 41.953125 46.0625 41.949219 L 46.015625 41.949219 C 45.972656 41.914062 45.945312 41.890625 45.890625 41.871094 C 45.839844 41.855469 45.8125 41.839844 45.769531 41.8125 C 45.808594 41.394531 45.90625 40.972656 45.976562 40.558594 C 46.007812 40.386719 46.074219 40.1875 46.050781 40.011719 L 46.042969 39.984375 C 46.023438 39.898438 46.070312 39.773438 46.085938 39.6875 L 46.234375 38.859375 L 46.914062 34.96875 C 47.058594 34.183594 47.304688 33.359375 47.34375 32.566406 C 47.351562 32.40625 47.324219 32.246094 47.234375 32.105469 C 47.179688 32.019531 47.09375 31.957031 46.988281 31.9375 C 46.796875 31.898438 46.558594 31.929688 46.359375 31.929688 L 45.003906 31.933594 C 44.589844 31.933594 44.152344 31.886719 43.746094 31.914062 C 43.632812 31.921875 43.546875 31.949219 43.453125 32.011719 C 43.359375 32.074219 43.292969 32.144531 43.257812 32.25 C 43.199219 32.441406 43.175781 32.660156 43.144531 32.859375 L 42.953125 33.976562 L 42.5 36.34375 L 42.039062 39.5 C 42.011719 39.652344 41.992188 39.816406 41.941406 39.960938 L 41.679688 41.714844 C 41.652344 41.761719 41.636719 41.792969 41.625 41.84375 L 41.617188 41.882812 C 41.605469 41.933594 41.609375 41.914062 41.609375 41.96875 C 41.609375 42.027344 41.617188 42 41.59375 42.046875 C 41.566406 42.101562 41.589844 42.144531 41.578125 42.203125 C 41.5625 42.285156 41.539062 42.386719 41.519531 42.46875 L 41.503906 42.5625 L 41.335938 43.683594 C 41.316406 43.832031 41.328125 43.976562 41.296875 44.125 C 41.261719 44.273438 41.257812 44.441406 41.234375 44.59375 C 41.214844 44.703125 41.160156 44.898438 41.183594 45.003906 C 41.210938 45.164062 41.367188 45.285156 41.390625 45.46875 C 41.25 45.289062 41.140625 45.074219 41.027344 44.875 L 40.363281 43.679688 L 40.972656 40.210938 C 40.984375 40.011719 41.046875 39.789062 41.078125 39.59375 L 41.382812 37.941406 L 41.910156 35.050781 C 42.046875 34.316406 42.171875 33.578125 42.363281 32.855469 C 42.433594 32.59375 42.511719 32.320312 42.628906 32.070312 C 42.675781 31.96875 42.761719 31.875 42.789062 31.769531 Z M 42.796875 31.730469 "/>
<path style=" stroke:none;fill-rule:nonzero;fill:url(#linear9);" d="M 48.15625 32.730469 L 48.230469 32.71875 L 48.292969 32.75 C 49.078125 32.824219 49.867188 32.988281 50.488281 33.515625 C 51.871094 34.515625 52.707031 35.933594 53.179688 37.554688 L 53.472656 38.753906 L 53.46875 39.003906 L 53.128906 42.316406 L 53.023438 42.890625 C 53 43.214844 52.886719 43.527344 52.867188 43.847656 L 51.925781 48.179688 C 51.609375 49.507812 51.207031 50.9375 50.507812 52.117188 L 50.519531 52.148438 C 49.707031 53.671875 48.472656 55.371094 46.746094 55.894531 L 46.367188 55.984375 C 46.070312 55.941406 45.765625 55.855469 45.476562 55.785156 L 44.171875 55.464844 C 43.902344 55.9375 43.5 56.261719 42.992188 56.460938 L 43.230469 55.492188 L 43.878906 51.851562 C 43.972656 51.308594 44.121094 50.71875 44.132812 50.171875 L 44.132812 50.109375 L 44.34375 49.9375 L 44.71875 49.625 C 44.804688 49.5625 45.015625 49.410156 45.066406 49.320312 C 45.175781 49.132812 45.179688 48.75 45.234375 48.527344 L 45.355469 47.84375 L 45.421875 47.5 L 45.484375 47.15625 L 45.546875 46.78125 L 45.605469 46.4375 C 45.636719 46.320312 45.640625 46.203125 45.648438 46.085938 L 46.753906 40.082031 L 47.257812 37.472656 L 47.773438 34.703125 L 48.027344 33.324219 C 48.066406 33.128906 48.078125 32.917969 48.15625 32.730469 Z M 48.15625 32.730469 "/>
<path style=" stroke:none;fill-rule:nonzero;fill:rgb(9.019608%,27.843137%,33.333333%);fill-opacity:1;" d="M 44.609375 53.023438 L 46.671875 53.484375 L 46.703125 53.4375 L 46.738281 53.414062 L 46.773438 53.492188 C 46.667969 53.921875 46.609375 54.375 46.539062 54.8125 C 46.476562 55.199219 46.394531 55.589844 46.367188 55.984375 C 46.070312 55.941406 45.765625 55.855469 45.476562 55.785156 L 44.171875 55.464844 C 44.277344 55.144531 44.3125 54.796875 44.367188 54.46875 Z M 44.609375 53.023438 "/>
<path style=" stroke:none;fill-rule:nonzero;fill:rgb(12.941176%,63.137255%,67.45098%);fill-opacity:1;" d="M 48.15625 32.730469 L 48.230469 32.71875 L 48.292969 32.75 C 49.078125 32.824219 49.867188 32.988281 50.488281 33.515625 C 50.339844 34.058594 50.253906 34.628906 50.160156 35.1875 C 50.113281 35.46875 50.039062 35.761719 50.023438 36.042969 C 49.90625 36.441406 49.859375 36.890625 49.789062 37.300781 L 49.320312 39.953125 C 49.277344 40.171875 49.265625 40.515625 49.167969 40.710938 L 48.800781 42.605469 C 48.753906 42.859375 48.667969 43.144531 48.65625 43.398438 L 47.738281 48.042969 L 46.773438 53.492188 L 46.738281 53.414062 L 46.703125 53.4375 L 46.671875 53.484375 L 44.609375 53.023438 L 44.367188 54.46875 C 44.3125 54.796875 44.277344 55.144531 44.171875 55.464844 C 43.902344 55.9375 43.5 56.261719 42.992188 56.460938 L 43.230469 55.492188 L 43.878906 51.851562 C 43.972656 51.308594 44.121094 50.71875 44.132812 50.171875 L 44.132812 50.109375 L 44.34375 49.9375 L 44.71875 49.625 C 44.804688 49.5625 45.015625 49.410156 45.066406 49.320312 C 45.175781 49.132812 45.179688 48.75 45.234375 48.527344 L 45.355469 47.84375 L 45.421875 47.5 L 45.484375 47.15625 L 45.546875 46.78125 L 45.605469 46.4375 C 45.636719 46.320312 45.640625 46.203125 45.648438 46.085938 L 46.753906 40.082031 L 47.257812 37.472656 L 47.773438 34.703125 L 48.027344 33.324219 C 48.066406 33.128906 48.078125 32.917969 48.15625 32.730469 Z M 48.15625 32.730469 "/>
<path style=" stroke:none;fill-rule:nonzero;fill:rgb(21.960784%,7.058824%,19.607843%);fill-opacity:1;" d="M 48.15625 32.730469 L 48.230469 32.71875 L 48.292969 32.75 C 48.152344 33.308594 48.066406 33.898438 47.972656 34.464844 L 47.601562 36.550781 L 47.46875 37.28125 C 47.445312 37.398438 47.433594 37.535156 47.382812 37.644531 C 47.28125 38.503906 47.085938 39.375 46.933594 40.230469 C 46.882812 40.519531 46.792969 40.828125 46.773438 41.121094 C 46.679688 41.414062 46.636719 41.753906 46.582031 42.058594 L 46.230469 44.019531 L 45.226562 49.539062 L 44.609375 53.023438 L 44.367188 54.46875 C 44.3125 54.796875 44.277344 55.144531 44.171875 55.464844 C 43.902344 55.9375 43.5 56.261719 42.992188 56.460938 L 43.230469 55.492188 L 43.878906 51.851562 C 43.972656 51.308594 44.121094 50.71875 44.132812 50.171875 L 44.132812 50.109375 L 44.34375 49.9375 L 44.71875 49.625 C 44.804688 49.5625 45.015625 49.410156 45.066406 49.320312 C 45.175781 49.132812 45.179688 48.75 45.234375 48.527344 L 45.355469 47.84375 L 45.421875 47.5 L 45.484375 47.15625 L 45.546875 46.78125 L 45.605469 46.4375 C 45.636719 46.320312 45.640625 46.203125 45.648438 46.085938 L 46.753906 40.082031 L 47.257812 37.472656 L 47.773438 34.703125 L 48.027344 33.324219 C 48.066406 33.128906 48.078125 32.917969 48.15625 32.730469 Z M 48.15625 32.730469 "/>
<path style=" stroke:none;fill-rule:nonzero;fill:url(#linear10);" d="M 23.167969 10.894531 C 24.015625 10.589844 24.84375 10.289062 25.71875 10.058594 C 30.09375 8.917969 34.933594 8.976562 39.253906 10.339844 C 40.3125 10.675781 41.34375 11.117188 42.351562 11.585938 C 42.492188 11.660156 42.636719 11.746094 42.789062 11.800781 C 43.0625 11.980469 43.363281 12.125 43.648438 12.285156 L 44.921875 13.058594 C 45.859375 13.65625 46.695312 14.375 47.5 15.132812 C 48.191406 15.78125 48.839844 16.433594 49.417969 17.1875 L 49.398438 17.257812 L 49.433594 17.289062 C 49.503906 17.363281 49.566406 17.457031 49.609375 17.546875 C 49.449219 17.566406 49.296875 17.542969 49.140625 17.5625 C 48.753906 17.609375 48.308594 17.558594 47.921875 17.5625 L 47.875 17.554688 C 47.757812 17.542969 47.617188 17.542969 47.5 17.554688 C 47.183594 17.589844 46.785156 17.582031 46.46875 17.554688 C 46.28125 17.539062 45.738281 17.5 45.59375 17.582031 L 46.300781 17.582031 C 46.414062 17.582031 46.542969 17.566406 46.652344 17.597656 L 46.621094 17.597656 L 45.554688 17.625 L 45.523438 17.585938 C 45.121094 17.117188 44.539062 16.71875 44.035156 16.355469 C 43.390625 15.890625 42.691406 15.492188 41.988281 15.125 C 39.296875 13.71875 36.425781 13.015625 33.410156 12.789062 C 32.355469 12.710938 31.265625 12.742188 30.214844 12.828125 C 26.957031 13.105469 23.90625 14.035156 21.050781 15.636719 C 20.3125 16.050781 19.597656 16.507812 18.90625 16.996094 L 18.28125 17.457031 C 18.234375 17.496094 18.113281 17.605469 18.058594 17.617188 C 17.800781 17.671875 17.453125 17.628906 17.179688 17.652344 C 16.3125 18.460938 15.515625 19.4375 14.820312 20.398438 C 13.878906 21.707031 13.03125 23.101562 12.40625 24.59375 C 11.75 26.160156 11.347656 27.804688 11.035156 29.46875 C 10.773438 30.855469 10.582031 32.273438 10.535156 33.6875 L 10.53125 37.257812 C 10.519531 37.71875 10.515625 38.183594 10.460938 38.644531 C 10.449219 38.714844 10.460938 38.757812 10.480469 38.828125 C 10.253906 38.964844 9.832031 39.074219 9.570312 39.101562 L 9.570312 39.117188 C 9.050781 39.246094 8.507812 39.304688 7.980469 39.191406 L 7.929688 39.179688 L 7.898438 39.171875 L 7.773438 39.089844 C 7.621094 38.40625 7.554688 37.613281 7.53125 36.914062 C 7.480469 36.703125 7.488281 36.457031 7.472656 36.238281 L 7.433594 34.628906 L 7.425781 34.5625 C 7.355469 33.878906 7.421875 33.121094 7.449219 32.433594 C 7.511719 30.835938 7.746094 29.285156 8.082031 27.722656 C 8.75 24.585938 9.851562 21.574219 11.660156 18.90625 C 11.953125 18.46875 12.246094 18.023438 12.578125 17.613281 L 14.320312 17.605469 L 14.335938 17.597656 C 14.597656 17.160156 14.992188 16.753906 15.328125 16.367188 C 16.761719 14.710938 18.550781 13.316406 20.453125 12.242188 C 21.339844 11.738281 22.246094 11.320312 23.167969 10.894531 Z M 23.167969 10.894531 "/>
<path style=" stroke:none;fill-rule:nonzero;fill:rgb(12.941176%,63.137255%,67.45098%);fill-opacity:1;" d="M 14.335938 17.597656 L 16.121094 17.605469 C 15.207031 18.554688 14.425781 19.5625 13.683594 20.648438 C 13.117188 21.46875 12.578125 22.304688 12.121094 23.195312 C 10.003906 27.296875 9.359375 31.980469 9.441406 36.546875 L 9.570312 39.101562 L 9.570312 39.117188 C 9.050781 39.246094 8.507812 39.304688 7.980469 39.191406 L 7.929688 39.179688 L 7.898438 39.171875 L 7.773438 39.089844 C 7.621094 38.40625 7.554688 37.613281 7.53125 36.914062 C 7.480469 36.703125 7.488281 36.457031 7.472656 36.238281 L 7.433594 34.628906 L 7.425781 34.5625 C 7.355469 33.878906 7.421875 33.121094 7.449219 32.433594 C 7.511719 30.835938 7.746094 29.285156 8.082031 27.722656 C 8.75 24.585938 9.851562 21.574219 11.660156 18.90625 C 11.953125 18.46875 12.246094 18.023438 12.578125 17.613281 L 14.320312 17.605469 Z M 14.335938 17.597656 "/>
<path style=" stroke:none;fill-rule:nonzero;fill:rgb(39.215686%,72.54902%,72.941176%);fill-opacity:1;" d="M 12.578125 17.613281 L 14.320312 17.605469 L 13.707031 18.472656 L 13.679688 18.523438 C 13.5 18.851562 13.242188 19.164062 13.03125 19.476562 L 11.917969 21.261719 C 10.070312 24.46875 8.820312 28.035156 8.347656 31.710938 L 8.085938 34.992188 C 8.0625 35.535156 8.101562 36.144531 8.015625 36.671875 L 8.023438 36.75 C 8.042969 37 7.945312 37.988281 8.046875 38.140625 L 8.046875 38.859375 C 7.957031 38.859375 7.863281 38.871094 7.78125 38.828125 C 7.75 38.5625 7.742188 38.265625 7.679688 38.007812 C 7.636719 37.824219 7.671875 37.605469 7.617188 37.425781 C 7.574219 37.277344 7.578125 37 7.574219 36.839844 C 7.570312 36.761719 7.589844 36.652344 7.539062 36.59375 C 7.542969 36.703125 7.539062 36.804688 7.53125 36.914062 C 7.480469 36.703125 7.488281 36.457031 7.472656 36.238281 L 7.433594 34.628906 L 7.425781 34.5625 C 7.355469 33.878906 7.421875 33.121094 7.449219 32.433594 C 7.511719 30.835938 7.746094 29.285156 8.082031 27.722656 C 8.75 24.585938 9.851562 21.574219 11.660156 18.90625 C 11.953125 18.46875 12.246094 18.023438 12.578125 17.613281 Z M 12.578125 17.613281 "/>
<path style=" stroke:none;fill-rule:nonzero;fill:rgb(74.509804%,80.392157%,76.862745%);fill-opacity:1;" d="M 12.578125 17.613281 L 14.320312 17.605469 L 13.707031 18.472656 C 13.71875 18.414062 13.714844 18.371094 13.75 18.320312 C 13.816406 18.238281 13.859375 18.152344 13.9375 18.078125 L 13.9375 18.039062 L 14 17.984375 L 14 17.945312 C 14.066406 17.886719 14.070312 17.875 14.117188 17.804688 L 14.15625 17.765625 L 14.144531 17.726562 C 14.128906 17.679688 14.132812 17.699219 14.125 17.65625 L 13.207031 17.65625 C 13.0625 17.871094 12.878906 18.039062 12.730469 18.25 L 11.410156 20.25 C 9.898438 22.707031 8.871094 25.441406 8.21875 28.246094 C 8.078125 28.863281 7.925781 29.488281 7.839844 30.113281 L 7.53125 32.925781 L 7.46875 33.933594 C 7.457031 34.15625 7.480469 34.414062 7.433594 34.628906 L 7.425781 34.5625 C 7.355469 33.878906 7.421875 33.121094 7.449219 32.433594 C 7.511719 30.835938 7.746094 29.285156 8.082031 27.722656 C 8.75 24.585938 9.851562 21.574219 11.660156 18.90625 C 11.953125 18.46875 12.246094 18.023438 12.578125 17.613281 Z M 12.578125 17.613281 "/>
<path style=" stroke:none;fill-rule:nonzero;fill:url(#linear11);" d="M 16.125 32.070312 C 16.855469 31.601562 17.640625 31.398438 18.496094 31.316406 C 19.007812 31.269531 19.515625 31.257812 20.019531 31.371094 C 20.390625 31.453125 20.820312 31.578125 21.140625 31.792969 C 21.316406 31.910156 21.464844 32.070312 21.617188 32.21875 L 21.917969 34.152344 C 22.042969 34.558594 22.089844 35.019531 22.160156 35.4375 L 22.484375 37.296875 L 22.703125 38.527344 C 22.742188 38.738281 22.800781 38.960938 22.808594 39.175781 C 22.921875 39.589844 22.976562 40.023438 23.050781 40.445312 L 23.371094 42.203125 C 23.421875 42.5 23.4375 42.878906 23.539062 43.160156 C 23.726562 43.945312 23.808594 44.761719 23.945312 45.558594 L 24.734375 50.082031 L 25.335938 53.410156 C 25.425781 53.964844 25.535156 54.511719 25.550781 55.078125 C 25.550781 55.144531 25.578125 55.1875 25.609375 55.246094 C 25.3125 55.753906 24.757812 56.238281 24.183594 56.390625 C 23.800781 56.488281 23.410156 56.492188 23.015625 56.527344 C 22.53125 56.570312 22.042969 56.636719 21.554688 56.621094 L 21.441406 56.621094 C 20.714844 56.574219 20.308594 56.179688 19.851562 55.667969 C 19.402344 55.746094 18.945312 55.773438 18.492188 55.816406 C 18.238281 55.84375 17.949219 55.90625 17.695312 55.886719 L 17.675781 55.871094 C 17.652344 55.816406 17.625 55.765625 17.617188 55.707031 L 17.5625 55.4375 C 17.535156 55.34375 17.523438 55.25 17.5 55.15625 L 17.46875 55.03125 L 17.425781 54.8125 L 17.386719 54.648438 L 16.167969 48.023438 L 15.144531 42.5 L 15.109375 42.363281 L 14.550781 39.257812 L 14.488281 38.894531 C 14.457031 38.835938 14.449219 38.730469 14.4375 38.664062 L 14.34375 38.109375 C 14.074219 36.539062 13.765625 34.933594 13.679688 33.339844 L 13.671875 32.746094 C 13.972656 32.632812 14.292969 32.566406 14.609375 32.503906 C 14.914062 32.460938 15.320312 32.371094 15.617188 32.46875 Z M 16.125 32.070312 "/>
<path style=" stroke:none;fill-rule:nonzero;fill:rgb(41.960784%,14.117647%,25.490196%);fill-opacity:1;" d="M 23.539062 43.160156 C 23.726562 43.945312 23.808594 44.761719 23.945312 45.558594 L 24.734375 50.082031 L 25.335938 53.410156 C 25.425781 53.964844 25.535156 54.511719 25.550781 55.078125 C 25.550781 55.144531 25.578125 55.1875 25.609375 55.246094 C 25.3125 55.753906 24.757812 56.238281 24.183594 56.390625 C 23.800781 56.488281 23.410156 56.492188 23.015625 56.527344 C 22.53125 56.570312 22.042969 56.636719 21.554688 56.621094 L 21.515625 56.597656 L 21.4375 56.578125 L 21.390625 56.546875 C 21.183594 56.441406 20.976562 56.386719 20.832031 56.183594 L 20.8125 56.15625 C 20.453125 55.660156 20.453125 54.808594 20.316406 54.214844 L 20.183594 53.40625 L 20.121094 53.03125 L 20.105469 52.921875 C 20.089844 52.863281 20.089844 52.824219 20.074219 52.765625 C 20.066406 52.710938 20.046875 52.714844 20.046875 52.648438 C 20.042969 52.445312 20.007812 52.238281 19.960938 52.039062 L 19.953125 52 L 19.851562 51.621094 C 19.824219 51.507812 19.828125 51.386719 19.753906 51.296875 L 19.6875 50.984375 C 19.664062 50.914062 19.667969 50.960938 19.664062 50.90625 L 19.65625 50.796875 C 19.613281 50.628906 19.566406 50.390625 19.566406 50.214844 L 19.5625 50.140625 C 19.546875 50.078125 19.546875 50.011719 19.53125 49.953125 C 19.515625 49.898438 19.511719 49.851562 19.5 49.796875 C 19.484375 49.734375 19.484375 49.667969 19.46875 49.609375 C 19.449219 49.542969 19.453125 49.480469 19.4375 49.421875 C 19.417969 49.355469 19.421875 49.292969 19.40625 49.234375 C 19.386719 49.167969 19.390625 49.105469 19.375 49.046875 C 19.351562 48.964844 19.355469 49.019531 19.351562 48.957031 L 19.34375 48.859375 C 19.328125 48.800781 19.316406 48.777344 19.316406 48.714844 L 19.3125 48.640625 C 19.289062 48.546875 19.292969 48.617188 19.289062 48.550781 L 19.28125 48.453125 C 19.261719 48.375 19.265625 48.308594 19.25 48.234375 C 19.226562 48.140625 19.222656 48.082031 19.226562 47.980469 C 19.339844 48.320312 19.363281 48.742188 19.433594 49.101562 L 19.546875 49.59375 L 19.640625 50.15625 C 19.65625 50.234375 19.65625 50.3125 19.671875 50.390625 C 19.691406 50.484375 19.6875 50.59375 19.714844 50.683594 C 19.734375 50.738281 19.726562 50.703125 19.730469 50.777344 L 19.734375 50.828125 C 19.773438 50.71875 19.859375 50.582031 19.921875 50.484375 L 20.0625 50.25 L 20.59375 49.3125 C 20.621094 49.25 20.597656 49.28125 20.632812 49.234375 L 21.019531 48.625 L 23.011719 44.527344 C 23.125 44.277344 23.222656 44.007812 23.308594 43.746094 C 23.367188 43.566406 23.398438 43.289062 23.539062 43.160156 Z M 23.539062 43.160156 "/>
<path style=" stroke:none;fill-rule:nonzero;fill:url(#linear12);" d="M 17.90625 39.058594 L 16.675781 32.492188 C 17.921875 31.898438 19.394531 31.792969 20.742188 32.019531 L 21.195312 34.515625 L 21.945312 38.824219 C 22.019531 39.074219 22.050781 39.351562 22.09375 39.609375 L 22.28125 40.710938 C 22.308594 40.867188 22.316406 41.171875 22.394531 41.304688 L 22.949219 44.5 C 22.871094 44.386719 22.875 44.296875 22.84375 44.171875 C 22.828125 44.109375 22.828125 44.042969 22.8125 43.984375 C 22.792969 43.917969 22.796875 43.855469 22.78125 43.796875 C 22.757812 43.710938 22.765625 43.613281 22.710938 43.546875 C 22.445312 43.644531 22.039062 43.558594 21.75 43.609375 C 21.601562 43.636719 21.460938 43.632812 21.308594 43.652344 C 21.171875 43.671875 21.035156 43.707031 20.894531 43.703125 C 20.851562 43.703125 20.8125 43.695312 20.769531 43.707031 C 20.714844 43.71875 20.65625 43.722656 20.605469 43.734375 C 20.320312 43.808594 20.003906 43.78125 19.71875 43.835938 L 18.984375 43.9375 C 18.925781 43.90625 18.894531 43.898438 18.828125 43.898438 C 18.824219 44.089844 18.890625 44.308594 18.921875 44.5 L 18.9375 44.625 C 18.957031 44.71875 18.964844 44.824219 18.988281 44.914062 C 19.011719 45.003906 19.046875 45.125 19.015625 45.207031 L 18.675781 43.390625 L 18.621094 43.09375 C 18.59375 43.027344 18.546875 42.945312 18.554688 42.875 L 18.5625 42.828125 C 18.539062 42.789062 18.527344 42.769531 18.519531 42.722656 C 18.507812 42.621094 18.488281 42.519531 18.460938 42.417969 C 18.445312 42.363281 18.476562 42.375 18.484375 42.328125 C 18.492188 42.277344 18.46875 42.175781 18.460938 42.125 L 18.363281 41.546875 Z M 17.90625 39.058594 "/>
<path style=" stroke:none;fill-rule:nonzero;fill:url(#linear13);" d="M 16.125 32.070312 C 16.164062 32.25 16.058594 32.554688 16.0625 32.757812 C 16.0625 33.074219 16.121094 33.394531 16.171875 33.707031 L 16.945312 37.875 L 17.523438 41.117188 C 17.527344 41.21875 17.53125 41.304688 17.554688 41.40625 L 18.597656 47.1875 L 18.617188 47.273438 C 18.636719 47.351562 18.664062 47.453125 18.675781 47.53125 L 18.679688 47.589844 L 18.699219 47.628906 C 18.746094 47.714844 18.746094 47.8125 18.765625 47.90625 L 18.898438 48.628906 C 18.921875 48.734375 18.921875 48.835938 18.953125 48.9375 C 18.984375 49.046875 18.992188 49.167969 19.015625 49.28125 L 19.027344 49.378906 L 19.054688 49.535156 C 19.085938 49.660156 19.113281 49.828125 19.109375 49.953125 C 19.09375 50.015625 19.085938 50.066406 19.054688 50.125 L 19.085938 50.328125 C 19.09375 50.375 19.09375 50.40625 19.089844 50.453125 L 19.105469 50.484375 C 19.132812 50.539062 19.128906 50.582031 19.132812 50.640625 C 19.136719 50.707031 19.132812 50.652344 19.15625 50.734375 C 19.171875 50.785156 19.167969 50.851562 19.179688 50.90625 L 19.183594 50.972656 C 19.191406 51.035156 19.207031 51.082031 19.21875 51.140625 L 19.230469 51.238281 C 19.253906 51.398438 19.296875 51.550781 19.324219 51.707031 L 19.335938 51.75 L 19.339844 51.785156 C 19.347656 51.855469 19.339844 51.792969 19.375 51.875 L 19.402344 52.011719 L 19.46875 52.066406 C 19.632812 52.046875 19.699219 51.988281 19.820312 51.882812 C 19.851562 51.933594 19.847656 51.90625 19.835938 51.96875 L 19.847656 51.992188 C 19.890625 52.105469 19.914062 52.246094 19.925781 52.367188 C 19.929688 52.417969 19.925781 52.394531 19.941406 52.445312 C 19.960938 52.5 19.953125 52.46875 19.957031 52.539062 C 19.960938 52.605469 19.984375 52.628906 20 52.6875 C 20.003906 52.710938 20 52.738281 20 52.761719 L 20.03125 52.8125 L 20.042969 52.925781 C 20.046875 52.996094 20.0625 53.054688 20.082031 53.121094 C 20.097656 53.175781 20.09375 53.195312 20.078125 53.25 L 20.101562 53.285156 C 20.144531 53.375 20.144531 53.476562 20.148438 53.574219 C 20.152344 53.679688 20.207031 53.792969 20.210938 53.914062 C 20.210938 53.96875 20.234375 53.996094 20.25 54.046875 C 20.269531 54.109375 20.277344 54.167969 20.273438 54.230469 L 20.316406 54.214844 C 20.453125 54.808594 20.453125 55.660156 20.8125 56.15625 L 20.832031 56.183594 C 20.976562 56.386719 21.183594 56.441406 21.390625 56.546875 L 21.4375 56.578125 L 21.515625 56.597656 L 21.554688 56.621094 L 21.441406 56.621094 C 20.714844 56.574219 20.308594 56.179688 19.851562 55.667969 C 19.402344 55.746094 18.945312 55.773438 18.492188 55.816406 C 18.238281 55.84375 17.949219 55.90625 17.695312 55.886719 L 17.675781 55.871094 C 17.652344 55.816406 17.625 55.765625 17.617188 55.707031 L 17.5625 55.4375 C 17.535156 55.34375 17.523438 55.25 17.5 55.15625 L 17.46875 55.03125 L 17.425781 54.8125 L 17.386719 54.648438 L 16.167969 48.023438 L 15.144531 42.5 L 15.109375 42.363281 L 14.550781 39.257812 L 14.488281 38.894531 C 14.457031 38.835938 14.449219 38.730469 14.4375 38.664062 L 14.34375 38.109375 C 14.074219 36.539062 13.765625 34.933594 13.679688 33.339844 L 13.671875 32.746094 C 13.972656 32.632812 14.292969 32.566406 14.609375 32.503906 C 14.914062 32.460938 15.320312 32.371094 15.617188 32.46875 Z M 16.125 32.070312 "/>
<path style=" stroke:none;fill-rule:nonzero;fill:rgb(21.960784%,7.058824%,19.607843%);fill-opacity:1;" d="M 16.125 32.070312 C 16.164062 32.25 16.058594 32.554688 16.0625 32.757812 C 16.0625 33.074219 16.121094 33.394531 16.171875 33.707031 L 16.945312 37.875 L 17.523438 41.117188 C 17.527344 41.21875 17.53125 41.304688 17.554688 41.40625 L 18.597656 47.1875 L 18.617188 47.273438 C 18.636719 47.351562 18.664062 47.453125 18.675781 47.53125 L 18.679688 47.589844 L 18.699219 47.628906 C 18.746094 47.714844 18.746094 47.8125 18.765625 47.90625 L 18.898438 48.628906 C 18.921875 48.734375 18.921875 48.835938 18.953125 48.9375 C 18.984375 49.046875 18.992188 49.167969 19.015625 49.28125 L 19.027344 49.378906 L 19.054688 49.535156 C 19.085938 49.660156 19.113281 49.828125 19.109375 49.953125 C 19.09375 50.015625 19.085938 50.066406 19.054688 50.125 L 19.085938 50.328125 C 19.09375 50.375 19.09375 50.40625 19.089844 50.453125 L 19.105469 50.484375 C 19.132812 50.539062 19.128906 50.582031 19.132812 50.640625 C 19.136719 50.707031 19.132812 50.652344 19.15625 50.734375 C 19.171875 50.785156 19.167969 50.851562 19.179688 50.90625 L 19.183594 50.972656 C 19.191406 51.035156 19.207031 51.082031 19.21875 51.140625 L 19.230469 51.238281 C 19.253906 51.398438 19.296875 51.550781 19.324219 51.707031 L 19.335938 51.75 L 19.339844 51.785156 C 19.347656 51.855469 19.339844 51.792969 19.375 51.875 L 19.402344 52.011719 L 19.46875 52.066406 C 19.632812 52.046875 19.699219 51.988281 19.820312 51.882812 C 19.851562 51.933594 19.847656 51.90625 19.835938 51.96875 L 19.847656 51.992188 C 19.890625 52.105469 19.914062 52.246094 19.925781 52.367188 C 19.929688 52.417969 19.925781 52.394531 19.941406 52.445312 C 19.960938 52.5 19.953125 52.46875 19.957031 52.539062 C 19.960938 52.605469 19.984375 52.628906 20 52.6875 C 20.003906 52.710938 20 52.738281 20 52.761719 L 20.03125 52.8125 L 20.042969 52.925781 C 20.046875 52.996094 20.0625 53.054688 20.082031 53.121094 C 20.097656 53.175781 20.09375 53.195312 20.078125 53.25 L 20.101562 53.285156 C 20.144531 53.375 20.144531 53.476562 20.148438 53.574219 C 20.152344 53.679688 20.207031 53.792969 20.210938 53.914062 C 20.210938 53.96875 20.234375 53.996094 20.25 54.046875 C 20.269531 54.109375 20.277344 54.167969 20.273438 54.230469 L 20.316406 54.214844 C 20.453125 54.808594 20.453125 55.660156 20.8125 56.15625 L 20.832031 56.183594 C 20.976562 56.386719 21.183594 56.441406 21.390625 56.546875 L 21.4375 56.578125 L 21.515625 56.597656 L 21.554688 56.621094 L 21.441406 56.621094 C 20.714844 56.574219 20.308594 56.179688 19.851562 55.667969 C 19.800781 55.484375 19.726562 55.308594 19.683594 55.125 C 19.480469 54.273438 19.378906 53.394531 19.21875 52.535156 L 18.042969 46.003906 C 17.851562 44.953125 17.714844 43.871094 17.460938 42.832031 L 16.648438 38.359375 C 16.613281 37.871094 16.453125 37.347656 16.363281 36.863281 C 16.097656 35.414062 15.773438 33.9375 15.617188 32.46875 Z M 16.125 32.070312 "/>
</g>
</svg>
