<!DOCTYPE svg PUBLIC "-//W3C//DTD SVG 1.1//EN" "http://www.w3.org/Graphics/SVG/1.1/DTD/svg11.dtd">
<!-- Uploaded to: SVG Repo, www.svgrepo.com, Transformed by: SVG Repo Mixer Tools -->
<svg fill="#000000" width="256px" height="256px" viewBox="0 0 24.00 24.00" xmlns="http://www.w3.org/2000/svg" style="--darkreader-inline-fill: #000000;" data-darkreader-inline-fill="">
<g id="SVGRepo_bgCarrier" stroke-width="0"/>
<g id="SVGRepo_tracerCarrier" stroke-linecap="round" stroke-linejoin="round" stroke="#CCCCCC" stroke-width="0.288" style="--darkreader-inline-stroke: #c8c3bc;" data-darkreader-inline-stroke=""/>
<g id="SVGRepo_iconCarrier">
<path d="M23,12A11,11,0,0,1,4.963,20.451l-.256.256A1,1,0,0,1,4,21a.987.987,0,0,1-.383-.076A1,1,0,0,1,3,20V18a1,1,0,0,1,1-1H6a1,1,0,0,1,.707,1.707l-.322.322A9,9,0,1,0,3,12a9.107,9.107,0,0,0,.18,1.8,1,1,0,0,1-1.96.4A11,11,0,1,1,23,12ZM12,5a1,1,0,0,0-1,1v6a1,1,0,0,0,1,1h5a1,1,0,0,0,0-2H13V6A1,1,0,0,0,12,5Z"/>
</g>
</svg>