<?xml version="1.0" ?>
<!DOCTYPE svg  PUBLIC '-//W3C//DTD SVG 1.1//EN'  'http://www.w3.org/Graphics/SVG/1.1/DTD/svg11.dtd'>
<!-- Uploaded to: SVG Repo, www.svgrepo.com, Generator: SVG Repo Mixer Tools -->
<svg fill="#000000" width="800px" height="800px" viewBox="0 0 32 32" style="fill-rule:evenodd;clip-rule:evenodd;stroke-linejoin:round;stroke-miterlimit:2;" version="1.1" xml:space="preserve" xmlns="http://www.w3.org/2000/svg" xmlns:serif="http://www.serif.com/" xmlns:xlink="http://www.w3.org/1999/xlink">
<g id="Icon">
<path d="M30,9c0,-0.796 -0.316,-1.559 -0.879,-2.121c-0.562,-0.563 -1.325,-0.879 -2.121,-0.879l-22,0c-0.796,0 -1.559,0.316 -2.121,0.879c-0.563,0.562 -0.879,1.325 -0.879,2.121c0,3.463 0,10.537 0,14c-0,0.796 0.316,1.559 0.879,2.121c0.562,0.563 1.325,0.879 2.121,0.879l22,0c0.796,-0 1.559,-0.316 2.121,-0.879c0.563,-0.562 0.879,-1.325 0.879,-2.121l-0,-14Zm-2,0l-0,14c0,0.265 -0.105,0.52 -0.293,0.707c-0.187,0.188 -0.442,0.293 -0.707,0.293c-0,0 -22,0 -22,0c-0.265,-0 -0.52,-0.105 -0.707,-0.293c-0.188,-0.187 -0.293,-0.442 -0.293,-0.707l0,-14c-0,-0.265 0.105,-0.52 0.293,-0.707c0.187,-0.188 0.442,-0.293 0.707,-0.293c0,0 22,-0 22,-0c0.265,0 0.52,0.105 0.707,0.293c0.188,0.187 0.293,0.442 0.293,0.707Z"/>
<path d="M15,11l0.002,9.988c0,0.552 0.448,1 1,1c0.552,-0 1,-0.449 1,-1l-0.002,-9.988c-0,-0.552 -0.448,-1 -1,-1c-0.552,0 -1,0.448 -1,1Z"/>
<path d="M22.998,15l-0,1.988c-0,0.552 0.448,1 1,1c0.552,-0 1,-0.448 1,-1l-0,-1.988c-0,-0.552 -0.448,-1 -1,-1c-0.552,0 -1,0.448 -1,1Z"/>
<path d="M7.004,15l0,1.988c0,0.552 0.448,1 1,1c0.552,-0 1,-0.448 1,-1l0,-1.988c0,-0.552 -0.448,-1 -1,-1c-0.552,0 -1,0.448 -1,1Z"/>
<path d="M19,13l0,6c0,0.552 0.448,1 1,1c0.552,-0 1,-0.448 1,-1l0,-6c0,-0.552 -0.448,-1 -1,-1c-0.552,-0 -1,0.448 -1,1Z"/>
<path d="M11.002,13l0,6c0,0.552 0.448,1 1,1c0.552,-0 1,-0.448 1,-1l0,-6c0,-0.552 -0.448,-1 -1,-1c-0.552,-0 -1,0.448 -1,1Z"/>
</g>
</svg>