<svg version="1.1" id="Layer_1" xmlns="http://www.w3.org/2000/svg" xmlns:xlink="http://www.w3.org/1999/xlink" x="0px" y="0px"
	 width="100%" viewBox="0 0 1024 1024" enable-background="new 0 0 1024 1024" xml:space="preserve">
<path fill="#000000" opacity="1.000000" stroke="none" 
	d="
M485.000000,771.176392 
	C392.519501,771.170898 300.539032,771.173157 208.558548,771.144714 
	C197.222519,771.141174 186.283768,769.105286 176.473770,763.169678 
	C161.177200,753.914490 153.904877,739.732605 153.821320,722.271301 
	C153.553421,666.284424 153.709442,610.295410 153.705444,554.307251 
	C153.699097,465.659363 153.658600,377.011444 153.716461,288.363617 
	C153.731308,265.606293 168.592117,247.596451 190.688080,243.242004 
	C193.276062,242.731995 195.981750,242.654724 198.632935,242.653931 
	C263.785797,242.634399 328.938629,242.638626 394.091492,242.672501 
	C412.032593,242.681824 425.794037,250.356079 435.360168,265.527802 
	C442.646057,277.083130 450.294617,288.432831 457.067291,300.282410 
	C464.325714,312.981781 474.820160,317.928192 489.227386,317.889862 
	C584.873108,317.635254 680.519836,317.743988 776.166199,317.735718 
	C803.975647,317.733307 821.285950,335.075439 821.354004,363.001648 
	C821.385071,375.781403 821.385132,375.780182 834.292297,375.757812 
	C837.291626,375.752594 840.294067,375.668701 843.289734,375.774139 
	C862.837036,376.462036 878.824341,392.720795 879.378174,412.284149 
	C879.759399,425.750916 876.237976,438.675140 873.927917,451.741974 
	C866.573914,493.340302 858.933167,534.888062 851.353027,576.446167 
	C842.071777,627.331421 833.147034,678.286682 823.260071,729.054260 
	C818.210083,754.984985 796.879333,771.186646 770.439453,771.189697 
	C675.459656,771.200623 580.479797,771.182129 485.000000,771.176392 
M818.528259,665.104675 
	C820.864929,652.010620 823.162903,638.909546 825.544800,625.823669 
	C837.157288,562.024841 848.801514,498.231750 860.405151,434.431274 
	C861.565063,428.053589 863.250061,421.660156 863.430603,415.238617 
	C863.814575,401.579132 853.722961,392.282593 839.377075,392.281799 
	C658.879944,392.272003 478.382538,392.417328 297.886169,392.054260 
	C279.167694,392.016632 258.076660,403.399017 252.494278,427.976898 
	C245.860779,457.182617 239.064362,486.351471 232.289322,515.524841 
	C221.636765,561.394714 210.890350,607.242981 200.288193,653.124451 
	C194.706238,677.280701 189.149292,701.446106 183.957108,725.687927 
	C180.698822,740.900574 188.395828,751.689941 203.544159,754.079956 
	C205.997375,754.467041 208.515732,754.584900 211.004028,754.585388 
	C397.000946,754.619873 582.997864,754.634705 768.994812,754.635864 
	C789.841431,754.635986 803.954346,742.727722 807.697998,722.316956 
	C811.148132,703.507019 814.773254,684.729309 818.528259,665.104675 
M428.522339,285.923370 
	C426.112122,282.124786 423.554138,278.410858 421.320374,274.511200 
	C415.450684,264.264069 406.258423,259.765472 394.898407,259.289917 
	C387.411469,258.976532 379.902008,259.188812 372.402618,259.187805 
	C315.072601,259.180115 257.742462,259.232971 200.412674,259.115997 
	C191.532410,259.097870 184.149078,261.906738 178.084961,268.357452 
	C172.394913,274.410309 170.260468,281.669739 170.264420,289.835388 
	C170.300217,363.831177 170.279938,437.826996 170.278229,511.822784 
	C170.276703,577.101807 170.277908,642.380859 170.277908,709.001404 
	C173.305954,696.243164 176.067520,684.791809 178.739655,673.319641 
	C198.024399,590.524963 217.207901,507.706573 236.605530,424.938385 
	C244.072571,393.077148 266.478516,375.714325 299.122162,375.718567 
	C463.112793,375.739899 627.103455,375.741333 791.094055,375.741669 
	C804.912659,375.741669 804.825623,375.713837 804.793945,361.661652 
	C804.779175,355.104950 803.349609,349.061890 799.205505,343.925690 
	C793.707947,337.111755 786.444153,334.280762 777.699646,334.286926 
	C680.538574,334.355469 583.377380,334.263641 486.216370,334.387299 
	C467.716400,334.410858 453.900665,326.840332 444.344727,311.076447 
	C439.336029,302.813904 434.054413,294.716888 428.522339,285.923370 
z"/>
<path fill="#000000" opacity="1.000000" stroke="none" 
	d="
M539.971252,637.139404 
	C525.813293,637.144836 512.149902,637.039795 498.490326,637.219482 
	C494.252625,637.275208 492.502899,635.982910 492.647003,631.502380 
	C492.999908,620.531372 492.102295,609.516541 493.947693,598.601624 
	C496.675171,582.469238 504.727173,569.452637 516.973083,558.795593 
	C524.885681,551.909607 533.213013,545.488220 540.510620,537.905396 
	C550.211365,527.825500 553.425537,516.074707 549.684387,502.525177 
	C548.333557,497.633118 545.374695,493.921326 541.051880,491.334259 
	C526.034668,482.347076 505.502319,489.680969 499.753387,506.134460 
	C497.328247,513.075317 495.959137,520.278503 495.341431,527.594788 
	C494.728607,534.853088 494.672974,535.006897 487.685944,533.535583 
	C471.735077,530.176819 455.816772,526.655579 439.827881,523.490417 
	C435.744171,522.682068 434.892944,521.156250 435.536163,517.101257 
	C438.028625,501.388184 441.422363,486.085083 450.108093,472.364227 
	C461.065094,455.055359 476.472870,443.812897 496.097595,438.602692 
	C520.684021,432.075226 545.159912,432.376312 569.139343,441.648193 
	C595.479431,451.832916 613.241394,478.001831 614.399597,506.209229 
	C615.651978,536.713867 601.503601,559.040161 578.947266,577.476013 
	C571.987366,583.164490 565.016052,588.863098 559.025513,595.633667 
	C553.968506,601.349182 551.143616,607.900940 551.213867,615.612183 
	C551.260864,620.776550 551.015198,625.957947 551.359680,631.100952 
	C551.663879,635.642395 550.119263,637.688477 545.462524,637.174805 
	C543.816162,636.993164 542.133423,637.141174 539.971252,637.139404 
M522.063843,471.532288 
	C525.558472,470.708221 529.036865,471.444733 532.511475,471.687714 
	C548.333862,472.794281 561.135071,482.743378 565.564697,497.916962 
	C571.421387,517.978577 566.193726,535.526123 551.971619,550.291138 
	C544.942627,557.588440 537.174927,564.240906 529.301575,570.644104 
	C513.521240,583.477783 507.903564,600.002502 510.346130,620.008301 
	C515.616455,620.008301 520.921936,620.005615 526.227417,620.008972 
	C533.925781,620.013794 534.025330,620.023071 534.585999,612.490845 
	C535.532837,599.769775 540.631775,589.012329 549.940796,580.394775 
	C556.293091,574.514282 563.001282,569.016785 569.575928,563.377869 
	C583.835327,551.147949 595.282410,537.235413 597.298157,517.585449 
	C599.231812,498.736053 593.011719,473.264130 571.078979,461.068542 
	C551.278748,450.058716 530.101379,448.942017 508.489624,452.833221 
	C479.363434,458.077423 461.533112,475.487061 454.812378,504.390045 
	C453.883820,508.383545 455.041443,509.924469 458.757111,510.547150 
	C463.186279,511.289398 467.588501,512.201538 471.987915,513.110168 
	C479.823547,514.728455 479.819000,514.750549 481.845398,506.934845 
	C487.418304,485.440369 501.591492,472.711792 522.063843,471.532288 
z"/>
<path fill="#000000" opacity="1.000000" stroke="none" 
	d="
M527.000000,652.702393 
	C534.326355,652.712158 541.156006,652.851685 547.977844,652.680786 
	C551.709839,652.587280 552.950867,654.181824 552.935852,657.736389 
	C552.868286,673.719421 552.877991,689.703552 553.005493,705.686096 
	C553.036438,709.560364 551.427185,711.032837 547.650269,711.005981 
	C530.834900,710.886414 514.018555,710.849792 497.202698,710.869812 
	C493.242676,710.874512 491.657928,709.345398 491.704376,705.197693 
	C491.879517,689.549133 491.889801,673.895142 491.657654,658.247742 
	C491.590637,653.730774 493.310059,652.532166 497.531189,652.633118 
	C507.182526,652.863770 516.843140,652.703918 527.000000,652.702393 
M528.356445,669.309448 
	C523.037170,669.321777 517.715759,669.427856 512.399353,669.309937 
	C509.383118,669.243042 508.242188,670.486389 508.308624,673.456238 
	C508.431305,678.938965 508.438934,684.428955 508.301544,689.911072 
	C508.223541,693.022949 509.689514,693.974121 512.540588,693.939758 
	C518.856201,693.863708 525.175415,693.839172 531.489319,693.971802 
	C534.767273,694.040649 535.901611,692.595642 535.804199,689.461975 
	C535.664795,684.978271 535.766479,680.486816 535.778564,675.998657 
	C535.796387,669.395874 535.801392,669.395874 528.356445,669.309448 
z"/>
</svg>