<svg version="1.1" id="Layer_1" xmlns="http://www.w3.org/2000/svg" xmlns:xlink="http://www.w3.org/1999/xlink" x="0px" y="0px"
	 width="100%" viewBox="0 0 1024 720" enable-background="new 0 0 1024 720" xml:space="preserve">
<path fill="#000000" opacity="1.000000" stroke="none" 
	d="
M247.000763,99.000244 
	C309.828064,98.992241 372.155548,98.990952 434.483032,98.963760 
	C439.164429,98.961716 443.797729,99.311714 448.382996,100.248627 
	C458.840607,102.385445 466.254761,108.724716 472.024170,117.354271 
	C476.932587,124.695892 482.064880,131.895523 486.759369,139.370728 
	C494.421936,151.572235 505.715210,156.649506 519.642090,156.657532 
	C586.635864,156.696182 653.629578,156.672791 720.623352,156.673309 
	C746.787598,156.673508 772.951904,156.653290 799.116089,156.689117 
	C822.979248,156.721802 838.296326,171.930695 838.368164,195.616501 
	C838.398010,205.448792 838.238586,215.283981 838.439148,225.112274 
	C838.518860,229.014923 837.170349,230.399185 833.251709,230.331528 
	C822.255920,230.141663 811.253662,230.163498 800.256714,230.312027 
	C796.753418,230.359344 795.286316,229.242905 794.870544,225.589996 
	C792.790161,207.314224 780.179993,196.076202 761.443481,195.979004 
	C731.947083,195.825974 702.449463,195.927841 672.952332,195.934143 
	C539.465454,195.962616 405.978607,195.996811 272.491760,196.025238 
	C251.730881,196.029663 238.434570,209.721741 238.414108,231.313354 
	C238.353912,294.807281 238.261902,358.301483 238.420258,421.795013 
	C238.440918,430.070374 237.367294,438.043274 235.210205,445.920349 
	C222.290146,493.100952 210.148544,540.484558 198.053772,587.880798 
	C197.942566,588.316528 197.504257,588.668823 197.053696,589.286072 
	C195.034164,587.720886 195.830566,585.593872 195.828934,583.822388 
	C195.745026,492.997711 195.697876,402.172943 195.671356,311.348206 
	C195.654282,252.853638 195.641800,194.359039 195.698288,135.864517 
	C195.716080,117.440147 206.054993,103.972603 223.087112,100.087700 
	C230.795670,98.329437 238.681686,99.081779 247.000763,99.000244 
z"/>
<path fill="#000000" opacity="1.000000" stroke="none" 
	d="
M217.725296,545.939392 
	C230.732040,495.772614 243.723755,446.027283 256.598724,396.251709 
	C266.806793,356.786499 276.823792,317.271881 287.019775,277.803497 
	C292.409546,256.939880 305.986298,244.326767 326.747406,239.281631 
	C329.135223,238.701370 331.697479,238.668655 334.178925,238.668350 
	C517.823669,238.645065 701.468567,238.767014 885.112793,238.476776 
	C903.777039,238.447266 924.233276,250.550552 926.004272,276.349640 
	C926.620911,285.333191 923.114868,293.697327 920.963501,302.201660 
	C904.027588,369.149078 886.945190,436.059479 869.866943,502.970825 
	C861.720703,534.887268 853.782959,566.861206 845.196716,598.659546 
	C838.280029,624.274475 820.446960,637.294312 793.808899,637.295227 
	C611.997192,637.301147 430.185516,637.300598 248.373840,637.292908 
	C224.924149,637.291931 208.933212,623.109985 206.298569,599.868713 
	C205.554764,593.307190 207.348541,586.963806 208.884338,580.676392 
	C211.686752,569.203552 214.721848,557.787537 217.725296,545.939392 
M894.051514,337.744141 
	C898.438110,320.486481 902.872742,303.240814 907.172791,285.961639 
	C908.089050,282.280090 909.060486,278.578918 908.279785,274.638580 
	C905.776062,262.002258 897.781250,255.923340 883.369324,255.923462 
	C763.217957,255.924515 643.066528,255.921661 522.915161,255.935120 
	C461.756592,255.941971 400.598022,255.976715 339.439453,256.005707 
	C320.399506,256.014709 309.390381,264.303680 304.185760,282.781799 
	C301.841156,291.105957 299.853363,299.530334 297.682312,307.903687 
	C281.017822,372.176514 264.328247,436.442810 247.688858,500.722107 
	C240.015350,530.365540 232.357498,560.013489 224.850220,589.699280 
	C221.330017,603.619019 228.390640,615.857971 241.627411,619.206238 
	C246.197723,620.362305 250.919312,619.767578 255.568237,619.768921 
	C369.887177,619.802795 484.206085,619.801025 598.525024,619.796631 
	C663.350220,619.794128 728.175415,619.797791 793.000610,619.751343 
	C812.931702,619.737061 823.706116,611.476196 828.698792,592.376770 
	C835.177917,567.590637 841.572693,542.782227 847.932678,517.965149 
	C863.258423,458.163208 878.542725,398.350586 894.051514,337.744141 
z"/>
<path fill="#000000" opacity="1.000000" stroke="none" 
	d="
M486.088684,426.425415 
	C489.547577,417.249817 495.685272,411.171021 504.504181,408.138885 
	C507.840210,406.991882 508.752441,405.289307 508.806305,401.998016 
	C509.007324,389.710754 507.791656,377.377808 510.531738,365.170898 
	C518.667969,328.924042 547.901001,303.848755 585.020325,301.631775 
	C627.537781,299.092407 661.943115,328.873413 668.978516,367.583954 
	C670.951782,378.441620 670.326782,389.503937 670.156250,400.484467 
	C670.094910,404.438049 671.012573,406.626862 675.119629,408.264526 
	C688.256714,413.502869 694.937378,423.829803 695.049988,437.778870 
	C695.309448,469.928589 695.252869,502.082794 695.055176,534.233582 
	C694.939453,553.060120 681.440308,566.308777 662.748230,566.328247 
	C613.770569,566.379333 564.792786,566.383118 515.815125,566.332886 
	C497.334381,566.313965 483.896820,553.038818 483.830688,534.516113 
	C483.717102,502.697815 483.834534,470.878632 483.886871,439.059906 
	C483.893738,434.873383 484.693909,430.789307 486.088684,426.425415 
M537.500000,422.121429 
	C530.837463,422.116608 524.174866,422.088226 517.512390,422.112122 
	C505.251801,422.156067 500.104736,427.220520 500.113678,439.320953 
	C500.136719,470.467896 500.182678,501.614868 500.251099,532.761780 
	C500.278503,545.243347 505.763824,550.670654 518.256531,550.671631 
	C565.393555,550.675232 612.532776,550.425049 659.665894,550.852173 
	C670.790894,550.953003 679.222778,545.113831 678.980835,531.844727 
	C678.428284,501.540955 678.838623,471.219574 678.864197,440.905365 
	C678.875977,426.966797 673.929077,422.017059 659.922363,422.026154 
	C619.448242,422.052521 578.974121,422.088928 537.500000,422.121429 
M608.260071,343.187683 
	C581.915344,331.241669 552.970459,345.606689 547.888245,373.507050 
	C546.126343,383.179169 547.472351,393.107483 547.376892,402.917969 
	C547.348206,405.872528 549.695679,405.668793 551.707092,405.669434 
	C576.850403,405.677490 601.993774,405.636383 627.136780,405.722839 
	C630.603149,405.734802 631.923279,404.357727 631.871521,400.993805 
	C631.774231,394.667999 631.781433,388.338226 631.881775,382.012268 
	C632.160522,364.433502 624.122620,351.846710 608.260071,343.187683 
M520.471069,377.006348 
	C520.431641,384.667175 520.593689,392.336426 520.274597,399.985596 
	C520.092712,404.347778 521.566772,406.232208 525.963013,405.691681 
	C527.111206,405.550507 528.309875,405.544922 529.454895,405.700867 
	C534.306396,406.361572 535.799500,404.244476 535.740234,399.484131 
	C535.628540,390.507355 534.813477,381.461060 536.181885,372.545746 
	C540.687317,343.191895 566.226440,326.482788 591.639099,327.487183 
	C616.001465,328.450104 637.677917,346.055573 642.462769,369.929138 
	C644.184998,378.521820 643.232483,387.190521 643.364563,395.822937 
	C643.523254,406.201508 643.737305,406.464874 654.140686,405.703278 
	C656.984070,405.495117 658.526489,404.383087 658.543274,401.494019 
	C658.629211,386.707367 659.394592,371.965332 654.244080,357.565002 
	C638.872192,314.586761 582.354431,298.753113 547.125732,327.535370 
	C531.569580,340.244843 522.745544,356.260284 520.471069,377.006348 
z"/>
<path fill="#000000" opacity="1.000000" stroke="none" 
	d="
M581.242737,522.160156 
	C577.506104,522.159058 576.446228,520.354553 576.632019,517.328918 
	C576.784729,514.841675 576.533875,512.319702 576.809204,509.851837 
	C577.750000,501.420074 577.512207,494.137756 571.229736,486.602783 
	C563.689514,477.559296 567.710022,463.822235 577.637146,456.876526 
	C586.549866,450.640503 599.452698,452.557983 606.963379,461.234650 
	C614.566589,470.018280 614.261353,482.749664 605.843201,490.999451 
	C602.939209,493.845428 601.738464,496.690338 602.157166,500.664185 
	C602.713440,505.944672 602.784241,511.274414 603.224121,516.569641 
	C603.539062,520.360535 602.055664,522.183472 598.177795,522.140869 
	C592.690979,522.080688 587.202637,522.154785 581.242737,522.160156 
z"/>
</svg>